<?xml version="1.0" encoding="UTF-8" standalone="no"?><!-- Generator: Gravit.io --><svg xmlns="http://www.w3.org/2000/svg" xmlns:xlink="http://www.w3.org/1999/xlink" style="isolation:isolate" viewBox="30 451 219.676 81.629" width="219.676pt" height="81.629pt"><g style="isolation:isolate"><path d=" M 30 451 L 249.203 451 L 249.203 532.629 L 30 532.629 L 30 451 Z " fill="rgb(242,242,242)"/><path d=" M 77.766 491.325 L 77.766 491.325 L 77.766 491.325 Q 77.766 504.051 72.58 510.784 L 72.58 510.784 L 72.58 510.784 Q 67.395 517.516 57.657 517.516 L 57.657 517.516 L 45.071 517.516 L 45.071 466.118 L 58.817 466.118 L 58.817 466.118 Q 67.782 466.118 72.774 472.745 L 72.774 472.745 L 72.774 472.745 Q 77.766 479.372 77.766 491.325 Z  M 67.957 491.606 L 67.957 491.606 L 67.957 491.606 Q 67.957 474.379 58.465 474.379 L 58.465 474.379 L 54.633 474.379 L 54.633 509.149 L 57.727 509.149 L 57.727 509.149 Q 62.965 509.149 65.461 504.772 L 65.461 504.772 L 65.461 504.772 Q 67.957 500.395 67.957 491.606 Z  M 108.422 509.149 L 108.422 517.516 L 85.254 517.516 L 85.254 466.118 L 108.422 466.118 L 108.422 474.379 L 94.817 474.379 L 94.817 486.614 L 107.438 486.614 L 107.438 494.911 L 94.817 494.911 L 94.817 509.149 L 108.422 509.149 L 108.422 509.149 Z  M 128.883 497.512 L 125.473 497.512 L 125.473 517.516 L 115.91 517.516 L 115.91 466.118 L 128.426 466.118 L 128.426 466.118 Q 136.371 466.118 140.151 469.879 L 140.151 469.879 L 140.151 469.879 Q 143.93 473.641 143.93 481.375 L 143.93 481.375 L 143.93 481.375 Q 143.93 491.114 137.356 494.981 L 137.356 494.981 L 147.235 517.516 L 137.004 517.516 L 128.883 497.512 L 128.883 497.512 Z  M 125.473 474.379 L 125.473 489.286 L 127.934 489.286 L 127.934 489.286 Q 131.309 489.286 132.785 487.37 L 132.785 487.37 L 132.785 487.37 Q 134.262 485.454 134.262 481.657 L 134.262 481.657 L 134.262 481.657 Q 134.262 477.719 132.698 476.049 L 132.698 476.049 L 132.698 476.049 Q 131.133 474.379 127.864 474.379 L 127.864 474.379 L 125.473 474.379 L 125.473 474.379 Z  M 174.024 466.118 L 183.516 466.118 L 183.516 499.375 L 183.516 499.375 Q 183.516 508.551 179.367 513.385 L 179.367 513.385 L 179.367 513.385 Q 175.219 518.219 167.379 518.219 L 167.379 518.219 L 167.379 518.219 Q 159.715 518.219 155.707 513.42 L 155.707 513.42 L 155.707 513.42 Q 151.699 508.622 151.699 499.235 L 151.699 499.235 L 151.699 466.118 L 161.192 466.118 L 161.192 499.938 L 161.192 499.938 Q 161.192 509.747 167.696 509.747 L 167.696 509.747 L 167.696 509.747 Q 170.719 509.747 172.371 507.25 L 172.371 507.25 L 172.371 507.25 Q 174.024 504.754 174.024 500.149 L 174.024 500.149 L 174.024 466.118 L 174.024 466.118 Z  M 215.543 509.149 L 215.543 517.516 L 192.375 517.516 L 192.375 466.118 L 215.543 466.118 L 215.543 474.379 L 201.938 474.379 L 201.938 486.614 L 214.559 486.614 L 214.559 494.911 L 201.938 494.911 L 201.938 509.149 L 215.543 509.149 L 215.543 509.149 Z " fill="rgb(0,0,0)"/><path d=" M 224.447 509.14 L 249.676 509.14 L 249.676 517.525 L 224.447 517.525 L 224.447 509.14 Z " fill="rgb(0,0,0)"/></g></svg>