<?xml version="1.0" encoding="UTF-8" standalone="no"?><!-- Generator: Gravit.io --><svg xmlns="http://www.w3.org/2000/svg" xmlns:xlink="http://www.w3.org/1999/xlink" style="isolation:isolate" viewBox="56.902 50.578 260.696 22.488" width="260.696pt" height="22.488pt"><g><path d=" M 83.526 67.306 L 83.526 67.306 Q 85.086 67.306 85.95 66.706 L 85.95 66.706 L 85.95 66.706 Q 86.814 66.106 86.814 64.978 L 86.814 64.978 L 86.814 64.978 Q 86.814 64.066 86.418 63.466 L 86.418 63.466 L 86.418 63.466 Q 86.022 62.866 85.206 62.362 L 85.206 62.362 L 85.206 62.362 Q 84.39 61.858 82.806 61.162 L 82.806 61.162 L 82.806 61.162 Q 80.79 60.274 79.686 59.59 L 79.686 59.59 L 79.686 59.59 Q 78.582 58.906 77.946 57.862 L 77.946 57.862 L 77.946 57.862 Q 77.31 56.818 77.31 55.21 L 77.31 55.21 L 77.31 55.21 Q 77.31 52.906 78.942 51.742 L 78.942 51.742 L 78.942 51.742 Q 80.574 50.578 84.126 50.578 L 84.126 50.578 L 84.126 50.578 Q 85.71 50.578 87.186 50.89 L 87.186 50.89 L 87.186 50.89 Q 88.662 51.202 89.67 51.682 L 89.67 51.682 L 89.094 55.354 L 88.446 55.354 L 88.446 55.354 Q 87.99 53.89 87.498 53.026 L 87.498 53.026 L 87.498 53.026 Q 87.006 52.162 86.166 51.694 L 86.166 51.694 L 86.166 51.694 Q 85.326 51.226 83.934 51.226 L 83.934 51.226 L 83.934 51.226 Q 80.766 51.226 80.766 53.29 L 80.766 53.29 L 80.766 53.29 Q 80.766 54.13 81.15 54.682 L 81.15 54.682 L 81.15 54.682 Q 81.534 55.234 82.302 55.678 L 82.302 55.678 L 82.302 55.678 Q 83.07 56.122 84.846 56.986 L 84.846 56.986 L 85.326 57.202 L 85.326 57.202 Q 87.558 58.282 88.626 58.954 L 88.626 58.954 L 88.626 58.954 Q 89.694 59.626 90.318 60.622 L 90.318 60.622 L 90.318 60.622 Q 90.942 61.618 90.942 63.202 L 90.942 63.202 L 90.942 63.202 Q 90.942 65.554 89.178 66.754 L 89.178 66.754 L 89.178 66.754 Q 87.414 67.954 83.646 67.954 L 83.646 67.954 L 83.646 67.954 Q 82.134 67.954 80.298 67.618 L 80.298 67.618 L 80.298 67.618 Q 78.462 67.282 77.454 66.802 L 77.454 66.802 L 78.102 62.578 L 78.726 62.578 L 78.726 62.578 Q 79.038 64.45 79.662 65.482 L 79.662 65.482 L 79.662 65.482 Q 80.286 66.514 81.222 66.91 L 81.222 66.91 L 81.222 66.91 Q 82.158 67.306 83.526 67.306 L 83.526 67.306 L 83.526 67.306 Z  M 102.486 50.578 L 102.486 50.578 Q 106.542 50.578 108.966 52.594 L 108.966 52.594 L 108.966 52.594 Q 111.39 54.61 111.39 59.17 L 111.39 59.17 L 111.39 59.17 Q 111.39 63.73 108.966 65.746 L 108.966 65.746 L 108.966 65.746 Q 106.542 67.762 102.486 67.762 L 102.486 67.762 L 102.486 67.762 Q 98.43 67.762 96.006 65.746 L 96.006 65.746 L 96.006 65.746 Q 93.582 63.73 93.582 59.17 L 93.582 59.17 L 93.582 59.17 Q 93.582 54.61 96.006 52.594 L 96.006 52.594 L 96.006 52.594 Q 98.43 50.578 102.486 50.578 L 102.486 50.578 L 102.486 50.578 Z  M 102.486 67.066 L 102.486 67.066 Q 103.95 67.066 104.73 66.286 L 104.73 66.286 L 104.73 66.286 Q 105.51 65.506 105.798 63.838 L 105.798 63.838 L 105.798 63.838 Q 106.086 62.17 106.086 59.17 L 106.086 59.17 L 106.086 59.17 Q 106.086 56.17 105.798 54.502 L 105.798 54.502 L 105.798 54.502 Q 105.51 52.834 104.73 52.054 L 104.73 52.054 L 104.73 52.054 Q 103.95 51.274 102.486 51.274 L 102.486 51.274 L 102.486 51.274 Q 101.022 51.274 100.242 52.054 L 100.242 52.054 L 100.242 52.054 Q 99.462 52.834 99.174 54.502 L 99.174 54.502 L 99.174 54.502 Q 98.886 56.17 98.886 59.17 L 98.886 59.17 L 98.886 59.17 Q 98.886 62.17 99.174 63.838 L 99.174 63.838 L 99.174 63.838 Q 99.462 65.506 100.242 66.286 L 100.242 66.286 L 100.242 66.286 Q 101.022 67.066 102.486 67.066 L 102.486 67.066 L 102.486 67.066 Z  M 106.182 73.066 L 106.182 73.066 Q 105.27 73.066 104.514 72.754 L 104.514 72.754 L 104.514 72.754 Q 103.758 72.442 102.606 71.794 L 102.606 71.794 L 102.606 71.794 Q 101.238 71.002 100.134 70.582 L 100.134 70.582 L 100.134 70.582 Q 99.03 70.162 97.566 70.114 L 97.566 70.114 L 97.566 69.826 L 97.566 69.826 Q 98.454 68.626 99.894 68.626 L 99.894 68.626 L 99.894 68.626 Q 100.542 68.626 101.274 68.782 L 101.274 68.782 L 101.274 68.782 Q 102.006 68.938 103.278 69.298 L 103.278 69.298 L 103.278 69.298 Q 104.55 69.658 105.474 69.862 L 105.474 69.862 L 105.474 69.862 Q 106.398 70.066 107.262 70.066 L 107.262 70.066 L 107.262 70.066 Q 107.67 70.066 107.922 69.886 L 107.922 69.886 L 107.922 69.886 Q 108.174 69.706 108.462 69.322 L 108.462 69.322 L 108.654 69.058 L 109.182 69.178 L 109.182 69.178 Q 108.678 71.146 107.994 72.106 L 107.994 72.106 L 107.994 72.106 Q 107.31 73.066 106.182 73.066 L 106.182 73.066 L 106.182 73.066 Z  M 128.982 61.426 L 128.982 61.426 Q 128.934 64.45 127.35 66.202 L 127.35 66.202 L 127.35 66.202 Q 125.766 67.954 122.238 67.954 L 122.238 67.954 L 122.238 67.954 Q 118.398 67.954 116.562 66.394 L 116.562 66.394 L 116.562 66.394 Q 114.726 64.834 114.726 61.33 L 114.726 61.33 L 114.726 52.066 L 114.726 52.066 Q 114.726 51.802 114.618 51.706 L 114.618 51.706 L 114.618 51.706 Q 114.51 51.61 114.15 51.538 L 114.15 51.538 L 113.262 51.346 L 113.262 50.866 L 121.038 50.866 L 121.038 51.346 L 120.174 51.538 L 120.174 51.538 Q 119.838 51.61 119.73 51.694 L 119.73 51.694 L 119.73 51.694 Q 119.622 51.778 119.622 52.042 L 119.622 52.042 L 119.622 61.762 L 119.622 61.762 Q 119.622 63.802 119.91 64.93 L 119.91 64.93 L 119.91 64.93 Q 120.198 66.058 121.026 66.598 L 121.026 66.598 L 121.026 66.598 Q 121.854 67.138 123.462 67.138 L 123.462 67.138 L 123.462 67.138 Q 125.766 67.138 126.99 65.626 L 126.99 65.626 L 126.99 65.626 Q 128.214 64.114 128.214 61.618 L 128.214 61.618 L 128.214 52.066 L 128.214 52.066 Q 128.214 51.802 128.106 51.706 L 128.106 51.706 L 128.106 51.706 Q 127.998 51.61 127.638 51.538 L 127.638 51.538 L 126.75 51.346 L 126.75 50.866 L 130.398 50.866 L 130.398 51.346 L 129.534 51.538 L 129.534 51.538 Q 129.198 51.61 129.09 51.694 L 129.09 51.694 L 129.09 51.694 Q 128.982 51.778 128.982 52.042 L 128.982 52.042 L 128.982 61.426 L 128.982 61.426 Z  M 141.126 50.578 L 141.126 50.578 Q 145.182 50.578 147.606 52.63 L 147.606 52.63 L 147.606 52.63 Q 150.03 54.682 150.03 59.266 L 150.03 59.266 L 150.03 59.266 Q 150.03 63.85 147.606 65.902 L 147.606 65.902 L 147.606 65.902 Q 145.182 67.954 141.126 67.954 L 141.126 67.954 L 141.126 67.954 Q 137.07 67.954 134.646 65.902 L 134.646 65.902 L 134.646 65.902 Q 132.222 63.85 132.222 59.266 L 132.222 59.266 L 132.222 59.266 Q 132.222 54.706 134.658 52.642 L 134.658 52.642 L 134.658 52.642 Q 137.094 50.578 141.126 50.578 L 141.126 50.578 L 141.126 50.578 Z  M 141.126 67.258 L 141.126 67.258 Q 142.59 67.258 143.37 66.466 L 143.37 66.466 L 143.37 66.466 Q 144.15 65.674 144.438 63.97 L 144.438 63.97 L 144.438 63.97 Q 144.726 62.266 144.726 59.266 L 144.726 59.266 L 144.726 59.266 Q 144.726 56.266 144.438 54.562 L 144.438 54.562 L 144.438 54.562 Q 144.15 52.858 143.37 52.066 L 143.37 52.066 L 143.37 52.066 Q 142.59 51.274 141.126 51.274 L 141.126 51.274 L 141.126 51.274 Q 139.662 51.274 138.882 52.066 L 138.882 52.066 L 138.882 52.066 Q 138.102 52.858 137.814 54.562 L 137.814 54.562 L 137.814 54.562 Q 137.526 56.266 137.526 59.266 L 137.526 59.266 L 137.526 59.266 Q 137.526 62.266 137.814 63.97 L 137.814 63.97 L 137.814 63.97 Q 138.102 65.674 138.882 66.466 L 138.882 66.466 L 138.882 66.466 Q 139.662 67.258 141.126 67.258 L 141.126 67.258 L 141.126 67.258 Z  M 162.51 66.466 L 162.51 66.466 Q 162.51 66.73 162.618 66.826 L 162.618 66.826 L 162.618 66.826 Q 162.726 66.922 163.086 66.994 L 163.086 66.994 L 163.974 67.186 L 163.974 67.666 L 156.15 67.666 L 156.15 67.186 L 157.038 66.994 L 157.038 66.994 Q 157.398 66.922 157.506 66.826 L 157.506 66.826 L 157.506 66.826 Q 157.614 66.73 157.614 66.466 L 157.614 66.466 L 157.614 51.538 L 157.062 51.538 L 157.062 51.538 Q 155.598 51.538 154.794 52.018 L 154.794 52.018 L 154.794 52.018 Q 153.99 52.498 153.57 53.266 L 153.57 53.266 L 153.57 53.266 Q 153.15 54.034 152.526 55.714 L 152.526 55.714 L 151.998 55.714 L 151.998 50.866 L 168.126 50.866 L 168.126 55.714 L 167.598 55.714 L 167.598 55.714 Q 166.974 54.034 166.554 53.266 L 166.554 53.266 L 166.554 53.266 Q 166.134 52.498 165.33 52.018 L 165.33 52.018 L 165.33 52.018 Q 164.526 51.538 163.062 51.538 L 163.062 51.538 L 162.51 51.538 L 162.51 66.466 L 162.51 66.466 Z  M 169.374 67.186 L 170.262 66.994 L 170.262 66.994 Q 170.622 66.922 170.73 66.826 L 170.73 66.826 L 170.73 66.826 Q 170.838 66.73 170.838 66.466 L 170.838 66.466 L 170.838 52.066 L 170.838 52.066 Q 170.838 51.802 170.73 51.706 L 170.73 51.706 L 170.73 51.706 Q 170.622 51.61 170.262 51.538 L 170.262 51.538 L 169.374 51.346 L 169.374 50.866 L 184.158 50.866 L 184.158 55.546 L 183.558 55.546 L 183.558 55.546 Q 183.054 53.986 182.61 53.194 L 182.61 53.194 L 182.61 53.194 Q 182.166 52.402 181.374 51.994 L 181.374 51.994 L 181.374 51.994 Q 180.582 51.586 179.142 51.586 L 179.142 51.586 L 175.734 51.586 L 175.734 58.714 L 181.926 58.714 L 181.926 59.434 L 175.734 59.434 L 175.734 66.946 L 179.382 66.946 L 179.382 66.946 Q 180.798 66.946 181.614 66.514 L 181.614 66.514 L 181.614 66.514 Q 182.43 66.082 182.898 65.266 L 182.898 65.266 L 182.898 65.266 Q 183.366 64.45 183.87 62.89 L 183.87 62.89 L 184.494 62.89 L 184.494 67.666 L 169.374 67.666 L 169.374 67.186 L 169.374 67.186 Z  M 194.022 50.866 L 194.022 50.866 Q 196.926 50.866 198.618 51.25 L 198.618 51.25 L 198.618 51.25 Q 200.31 51.634 201.066 52.474 L 201.066 52.474 L 201.066 52.474 Q 201.822 53.314 201.822 54.754 L 201.822 54.754 L 201.822 54.754 Q 201.822 56.674 200.67 57.586 L 200.67 57.586 L 200.67 57.586 Q 199.518 58.498 196.998 58.762 L 196.998 58.762 L 196.998 58.762 Q 199.062 58.93 200.31 59.41 L 200.31 59.41 L 200.31 59.41 Q 201.558 59.89 202.146 60.814 L 202.146 60.814 L 202.146 60.814 Q 202.734 61.738 202.734 63.25 L 202.734 63.25 L 202.734 63.25 Q 202.734 64.93 201.822 65.89 L 201.822 65.89 L 201.822 65.89 Q 200.91 66.85 199.002 67.258 L 199.002 67.258 L 199.002 67.258 Q 197.094 67.666 193.878 67.666 L 193.878 67.666 L 186.654 67.666 L 186.654 67.186 L 187.542 66.994 L 187.542 66.994 Q 187.902 66.922 188.01 66.826 L 188.01 66.826 L 188.01 66.826 Q 188.118 66.73 188.118 66.466 L 188.118 66.466 L 188.118 52.066 L 188.118 52.066 Q 188.118 51.802 188.01 51.706 L 188.01 51.706 L 188.01 51.706 Q 187.902 51.61 187.542 51.538 L 187.542 51.538 L 186.654 51.346 L 186.654 50.866 L 194.022 50.866 L 194.022 50.866 Z  M 193.014 58.45 L 194.19 58.45 L 194.19 58.45 Q 195.678 58.45 196.398 57.538 L 196.398 57.538 L 196.398 57.538 Q 197.118 56.626 197.118 54.754 L 197.118 54.754 L 197.118 54.754 Q 197.118 53.146 196.41 52.366 L 196.41 52.366 L 196.41 52.366 Q 195.702 51.586 194.19 51.586 L 194.19 51.586 L 193.014 51.586 L 193.014 58.45 L 193.014 58.45 Z  M 193.014 59.17 L 193.014 66.946 L 194.094 66.946 L 194.094 66.946 Q 197.79 66.946 197.79 63.25 L 197.79 63.25 L 197.79 63.25 Q 197.79 61.09 197.022 60.13 L 197.022 60.13 L 197.022 60.13 Q 196.254 59.17 194.286 59.17 L 194.286 59.17 L 193.014 59.17 L 193.014 59.17 Z  M 214.038 50.578 L 214.038 50.578 Q 218.094 50.578 220.518 52.63 L 220.518 52.63 L 220.518 52.63 Q 222.942 54.682 222.942 59.266 L 222.942 59.266 L 222.942 59.266 Q 222.942 63.85 220.518 65.902 L 220.518 65.902 L 220.518 65.902 Q 218.094 67.954 214.038 67.954 L 214.038 67.954 L 214.038 67.954 Q 209.982 67.954 207.558 65.902 L 207.558 65.902 L 207.558 65.902 Q 205.134 63.85 205.134 59.266 L 205.134 59.266 L 205.134 59.266 Q 205.134 54.706 207.57 52.642 L 207.57 52.642 L 207.57 52.642 Q 210.006 50.578 214.038 50.578 L 214.038 50.578 L 214.038 50.578 Z  M 214.038 67.258 L 214.038 67.258 Q 215.502 67.258 216.282 66.466 L 216.282 66.466 L 216.282 66.466 Q 217.062 65.674 217.35 63.97 L 217.35 63.97 L 217.35 63.97 Q 217.638 62.266 217.638 59.266 L 217.638 59.266 L 217.638 59.266 Q 217.638 56.266 217.35 54.562 L 217.35 54.562 L 217.35 54.562 Q 217.062 52.858 216.282 52.066 L 216.282 52.066 L 216.282 52.066 Q 215.502 51.274 214.038 51.274 L 214.038 51.274 L 214.038 51.274 Q 212.574 51.274 211.794 52.066 L 211.794 52.066 L 211.794 52.066 Q 211.014 52.858 210.726 54.562 L 210.726 54.562 L 210.726 54.562 Q 210.438 56.266 210.438 59.266 L 210.438 59.266 L 210.438 59.266 Q 210.438 62.266 210.726 63.97 L 210.726 63.97 L 210.726 63.97 Q 211.014 65.674 211.794 66.466 L 211.794 66.466 L 211.794 66.466 Q 212.574 67.258 214.038 67.258 L 214.038 67.258 L 214.038 67.258 Z  M 234.366 67.666 L 234.366 67.186 L 235.398 67.09 L 235.398 67.09 Q 235.734 67.042 235.734 66.826 L 235.734 66.826 L 235.734 66.826 Q 235.734 66.706 235.662 66.538 L 235.662 66.538 L 234.078 63.034 L 228.51 63.034 L 227.07 66.538 L 227.07 66.538 Q 226.998 66.706 226.998 66.826 L 226.998 66.826 L 226.998 66.826 Q 226.998 67.042 227.334 67.09 L 227.334 67.09 L 228.366 67.186 L 228.366 67.666 L 224.718 67.666 L 224.718 67.186 L 225.606 67.09 L 225.606 67.09 Q 225.894 67.066 226.014 66.946 L 226.014 66.946 L 226.014 66.946 Q 226.134 66.826 226.278 66.514 L 226.278 66.514 L 232.926 50.602 L 233.694 50.602 L 240.726 66.514 L 240.726 66.514 Q 240.87 66.826 240.99 66.946 L 240.99 66.946 L 240.99 66.946 Q 241.11 67.066 241.398 67.09 L 241.398 67.09 L 242.286 67.186 L 242.286 67.666 L 234.366 67.666 L 234.366 67.666 Z  M 228.798 62.314 L 233.766 62.314 L 231.174 56.578 L 228.798 62.314 L 228.798 62.314 Z  M 253.47 62.122 L 253.47 62.122 Q 253.278 60.946 253.026 60.478 L 253.026 60.478 L 253.026 60.478 Q 252.774 60.01 252.222 59.854 L 252.222 59.854 L 252.222 59.854 Q 251.67 59.698 250.398 59.698 L 250.398 59.698 L 249.702 59.698 L 249.702 66.442 L 249.702 66.442 Q 249.702 66.706 249.81 66.802 L 249.81 66.802 L 249.81 66.802 Q 249.918 66.898 250.278 66.97 L 250.278 66.97 L 251.31 67.186 L 251.31 67.666 L 243.342 67.666 L 243.342 67.186 L 244.23 66.994 L 244.23 66.994 Q 244.59 66.922 244.698 66.826 L 244.698 66.826 L 244.698 66.826 Q 244.806 66.73 244.806 66.466 L 244.806 66.466 L 244.806 52.066 L 244.806 52.066 Q 244.806 51.802 244.698 51.706 L 244.698 51.706 L 244.698 51.706 Q 244.59 51.61 244.23 51.538 L 244.23 51.538 L 243.342 51.346 L 243.342 50.866 L 250.398 50.866 L 250.398 50.866 Q 253.614 50.866 255.51 51.286 L 255.51 51.286 L 255.51 51.286 Q 257.406 51.706 258.27 52.666 L 258.27 52.666 L 258.27 52.666 Q 259.134 53.626 259.134 55.282 L 259.134 55.282 L 259.134 55.282 Q 259.134 57.13 258.03 58.126 L 258.03 58.126 L 258.03 58.126 Q 256.926 59.122 254.454 59.482 L 254.454 59.482 L 254.454 59.482 Q 255.87 59.578 256.722 59.938 L 256.722 59.938 L 256.722 59.938 Q 257.574 60.298 258.054 61.078 L 258.054 61.078 L 258.054 61.078 Q 258.534 61.858 258.798 63.226 L 258.798 63.226 L 259.062 64.666 L 259.062 64.666 Q 259.254 65.698 259.338 66.058 L 259.338 66.058 L 259.338 66.058 Q 259.422 66.418 259.578 66.61 L 259.578 66.61 L 259.578 66.61 Q 259.734 66.802 260.07 66.802 L 260.07 66.802 L 260.07 66.802 Q 260.67 66.802 261.078 65.914 L 261.078 65.914 L 261.582 66.346 L 261.582 66.346 Q 261.246 67.042 260.562 67.474 L 260.562 67.474 L 260.562 67.474 Q 259.878 67.906 258.342 67.906 L 258.342 67.906 L 258.342 67.906 Q 256.806 67.906 255.918 67.57 L 255.918 67.57 L 255.918 67.57 Q 255.03 67.234 254.526 66.382 L 254.526 66.382 L 254.526 66.382 Q 254.022 65.53 253.758 63.922 L 253.758 63.922 L 253.47 62.122 L 253.47 62.122 Z  M 249.702 51.586 L 249.702 58.978 L 250.614 58.978 L 250.614 58.978 Q 252.006 58.978 252.762 58.594 L 252.762 58.594 L 252.762 58.594 Q 253.518 58.21 253.806 57.418 L 253.806 57.418 L 253.806 57.418 Q 254.094 56.626 254.094 55.282 L 254.094 55.282 L 254.094 55.282 Q 254.094 53.938 253.806 53.146 L 253.806 53.146 L 253.806 53.146 Q 253.518 52.354 252.762 51.97 L 252.762 51.97 L 252.762 51.97 Q 252.006 51.586 250.614 51.586 L 250.614 51.586 L 249.702 51.586 L 249.702 51.586 Z  M 262.446 67.186 L 263.334 66.994 L 263.334 66.994 Q 263.694 66.922 263.802 66.826 L 263.802 66.826 L 263.802 66.826 Q 263.91 66.73 263.91 66.466 L 263.91 66.466 L 263.91 52.066 L 263.91 52.066 Q 263.91 51.802 263.802 51.706 L 263.802 51.706 L 263.802 51.706 Q 263.694 51.61 263.334 51.538 L 263.334 51.538 L 262.446 51.346 L 262.446 50.866 L 269.79 50.866 L 269.79 50.866 Q 274.83 50.866 277.47 52.762 L 277.47 52.762 L 277.47 52.762 Q 280.11 54.658 280.11 59.266 L 280.11 59.266 L 280.11 59.266 Q 280.11 63.874 277.47 65.77 L 277.47 65.77 L 277.47 65.77 Q 274.83 67.666 269.79 67.666 L 269.79 67.666 L 262.446 67.666 L 262.446 67.186 L 262.446 67.186 Z  M 268.806 51.586 L 268.806 66.946 L 269.79 66.946 L 269.79 66.946 Q 271.782 66.946 272.862 66.238 L 272.862 66.238 L 272.862 66.238 Q 273.942 65.53 274.374 63.898 L 274.374 63.898 L 274.374 63.898 Q 274.806 62.266 274.806 59.266 L 274.806 59.266 L 274.806 59.266 Q 274.806 56.266 274.374 54.634 L 274.374 54.634 L 274.374 54.634 Q 273.942 53.002 272.862 52.294 L 272.862 52.294 L 272.862 52.294 Q 271.782 51.586 269.79 51.586 L 269.79 51.586 L 268.806 51.586 L 268.806 51.586 Z  M 282.078 67.186 L 282.966 66.994 L 282.966 66.994 Q 283.326 66.922 283.434 66.826 L 283.434 66.826 L 283.434 66.826 Q 283.542 66.73 283.542 66.466 L 283.542 66.466 L 283.542 52.066 L 283.542 52.066 Q 283.542 51.802 283.434 51.706 L 283.434 51.706 L 283.434 51.706 Q 283.326 51.61 282.966 51.538 L 282.966 51.538 L 282.078 51.346 L 282.078 50.866 L 296.862 50.866 L 296.862 55.546 L 296.262 55.546 L 296.262 55.546 Q 295.758 53.986 295.314 53.194 L 295.314 53.194 L 295.314 53.194 Q 294.87 52.402 294.078 51.994 L 294.078 51.994 L 294.078 51.994 Q 293.286 51.586 291.846 51.586 L 291.846 51.586 L 288.438 51.586 L 288.438 58.714 L 294.63 58.714 L 294.63 59.434 L 288.438 59.434 L 288.438 66.946 L 292.086 66.946 L 292.086 66.946 Q 293.502 66.946 294.318 66.514 L 294.318 66.514 L 294.318 66.514 Q 295.134 66.082 295.602 65.266 L 295.602 65.266 L 295.602 65.266 Q 296.07 64.45 296.574 62.89 L 296.574 62.89 L 297.198 62.89 L 297.198 67.666 L 282.078 67.666 L 282.078 67.186 L 282.078 67.186 Z  M 309.486 62.122 L 309.486 62.122 Q 309.294 60.946 309.042 60.478 L 309.042 60.478 L 309.042 60.478 Q 308.79 60.01 308.238 59.854 L 308.238 59.854 L 308.238 59.854 Q 307.686 59.698 306.414 59.698 L 306.414 59.698 L 305.718 59.698 L 305.718 66.442 L 305.718 66.442 Q 305.718 66.706 305.826 66.802 L 305.826 66.802 L 305.826 66.802 Q 305.934 66.898 306.294 66.97 L 306.294 66.97 L 307.326 67.186 L 307.326 67.666 L 299.358 67.666 L 299.358 67.186 L 300.246 66.994 L 300.246 66.994 Q 300.606 66.922 300.714 66.826 L 300.714 66.826 L 300.714 66.826 Q 300.822 66.73 300.822 66.466 L 300.822 66.466 L 300.822 52.066 L 300.822 52.066 Q 300.822 51.802 300.714 51.706 L 300.714 51.706 L 300.714 51.706 Q 300.606 51.61 300.246 51.538 L 300.246 51.538 L 299.358 51.346 L 299.358 50.866 L 306.414 50.866 L 306.414 50.866 Q 309.63 50.866 311.526 51.286 L 311.526 51.286 L 311.526 51.286 Q 313.422 51.706 314.286 52.666 L 314.286 52.666 L 314.286 52.666 Q 315.15 53.626 315.15 55.282 L 315.15 55.282 L 315.15 55.282 Q 315.15 57.13 314.046 58.126 L 314.046 58.126 L 314.046 58.126 Q 312.942 59.122 310.47 59.482 L 310.47 59.482 L 310.47 59.482 Q 311.886 59.578 312.738 59.938 L 312.738 59.938 L 312.738 59.938 Q 313.59 60.298 314.07 61.078 L 314.07 61.078 L 314.07 61.078 Q 314.55 61.858 314.814 63.226 L 314.814 63.226 L 315.078 64.666 L 315.078 64.666 Q 315.27 65.698 315.354 66.058 L 315.354 66.058 L 315.354 66.058 Q 315.438 66.418 315.594 66.61 L 315.594 66.61 L 315.594 66.61 Q 315.75 66.802 316.086 66.802 L 316.086 66.802 L 316.086 66.802 Q 316.686 66.802 317.094 65.914 L 317.094 65.914 L 317.598 66.346 L 317.598 66.346 Q 317.262 67.042 316.578 67.474 L 316.578 67.474 L 316.578 67.474 Q 315.894 67.906 314.358 67.906 L 314.358 67.906 L 314.358 67.906 Q 312.822 67.906 311.934 67.57 L 311.934 67.57 L 311.934 67.57 Q 311.046 67.234 310.542 66.382 L 310.542 66.382 L 310.542 66.382 Q 310.038 65.53 309.774 63.922 L 309.774 63.922 L 309.486 62.122 L 309.486 62.122 Z  M 305.718 51.586 L 305.718 58.978 L 306.63 58.978 L 306.63 58.978 Q 308.022 58.978 308.778 58.594 L 308.778 58.594 L 308.778 58.594 Q 309.534 58.21 309.822 57.418 L 309.822 57.418 L 309.822 57.418 Q 310.11 56.626 310.11 55.282 L 310.11 55.282 L 310.11 55.282 Q 310.11 53.938 309.822 53.146 L 309.822 53.146 L 309.822 53.146 Q 309.534 52.354 308.778 51.97 L 308.778 51.97 L 308.778 51.97 Q 308.022 51.586 306.63 51.586 L 306.63 51.586 L 305.718 51.586 L 305.718 51.586 Z " fill="rgb(0,0,0)"/><path d=" M 60.406 57.684 L 60.406 57.684 Q 60.406 57.772 60.442 57.804 L 60.442 57.804 L 60.442 57.804 Q 60.478 57.836 60.598 57.86 L 60.598 57.86 L 60.894 57.924 L 60.894 58.084 L 58.286 58.084 L 58.286 57.924 L 58.582 57.86 L 58.582 57.86 Q 58.702 57.836 58.738 57.804 L 58.738 57.804 L 58.738 57.804 Q 58.774 57.772 58.774 57.684 L 58.774 57.684 L 58.774 52.708 L 58.59 52.708 L 58.59 52.708 Q 58.102 52.708 57.834 52.868 L 57.834 52.868 L 57.834 52.868 Q 57.566 53.028 57.426 53.284 L 57.426 53.284 L 57.426 53.284 Q 57.286 53.54 57.078 54.1 L 57.078 54.1 L 56.902 54.1 L 56.902 52.484 L 62.278 52.484 L 62.278 54.1 L 62.102 54.1 L 62.102 54.1 Q 61.894 53.54 61.754 53.284 L 61.754 53.284 L 61.754 53.284 Q 61.614 53.028 61.346 52.868 L 61.346 52.868 L 61.346 52.868 Q 61.078 52.708 60.59 52.708 L 60.59 52.708 L 60.406 52.708 L 60.406 57.684 L 60.406 57.684 Z  M 64.814 55.34 L 64.814 57.692 L 64.814 57.692 Q 64.814 57.78 64.85 57.808 L 64.85 57.808 L 64.85 57.808 Q 64.886 57.836 64.998 57.86 L 64.998 57.86 L 65.286 57.924 L 65.286 58.084 L 62.694 58.084 L 62.694 57.924 L 62.99 57.86 L 62.99 57.86 Q 63.11 57.836 63.146 57.804 L 63.146 57.804 L 63.146 57.804 Q 63.182 57.772 63.182 57.684 L 63.182 57.684 L 63.182 52.884 L 63.182 52.884 Q 63.182 52.796 63.146 52.764 L 63.146 52.764 L 63.146 52.764 Q 63.11 52.732 62.99 52.708 L 62.99 52.708 L 62.694 52.644 L 62.694 52.484 L 65.286 52.484 L 65.286 52.644 L 64.998 52.708 L 64.998 52.708 Q 64.886 52.724 64.85 52.756 L 64.85 52.756 L 64.85 52.756 Q 64.814 52.788 64.814 52.876 L 64.814 52.876 L 64.814 55.1 L 66.91 55.1 L 66.91 52.876 L 66.91 52.876 Q 66.91 52.788 66.874 52.756 L 66.874 52.756 L 66.874 52.756 Q 66.838 52.724 66.726 52.708 L 66.726 52.708 L 66.438 52.644 L 66.438 52.484 L 69.03 52.484 L 69.03 52.644 L 68.734 52.708 L 68.734 52.708 Q 68.614 52.732 68.578 52.764 L 68.578 52.764 L 68.578 52.764 Q 68.542 52.796 68.542 52.884 L 68.542 52.884 L 68.542 57.684 L 68.542 57.684 Q 68.542 57.772 68.578 57.804 L 68.578 57.804 L 68.578 57.804 Q 68.614 57.836 68.734 57.86 L 68.734 57.86 L 69.03 57.924 L 69.03 58.084 L 66.438 58.084 L 66.438 57.924 L 66.726 57.86 L 66.726 57.86 Q 66.838 57.836 66.874 57.808 L 66.874 57.808 L 66.874 57.808 Q 66.91 57.78 66.91 57.692 L 66.91 57.692 L 66.91 55.34 L 64.814 55.34 L 64.814 55.34 Z  M 69.446 57.924 L 69.742 57.86 L 69.742 57.86 Q 69.862 57.836 69.898 57.804 L 69.898 57.804 L 69.898 57.804 Q 69.934 57.772 69.934 57.684 L 69.934 57.684 L 69.934 52.884 L 69.934 52.884 Q 69.934 52.796 69.898 52.764 L 69.898 52.764 L 69.898 52.764 Q 69.862 52.732 69.742 52.708 L 69.742 52.708 L 69.446 52.644 L 69.446 52.484 L 74.374 52.484 L 74.374 54.044 L 74.174 54.044 L 74.174 54.044 Q 74.006 53.524 73.858 53.26 L 73.858 53.26 L 73.858 53.26 Q 73.71 52.996 73.446 52.86 L 73.446 52.86 L 73.446 52.86 Q 73.182 52.724 72.702 52.724 L 72.702 52.724 L 71.566 52.724 L 71.566 55.1 L 73.63 55.1 L 73.63 55.34 L 71.566 55.34 L 71.566 57.844 L 72.782 57.844 L 72.782 57.844 Q 73.254 57.844 73.526 57.7 L 73.526 57.7 L 73.526 57.7 Q 73.798 57.556 73.954 57.284 L 73.954 57.284 L 73.954 57.284 Q 74.11 57.012 74.278 56.492 L 74.278 56.492 L 74.486 56.492 L 74.486 58.084 L 69.446 58.084 L 69.446 57.924 L 69.446 57.924 Z " fill="rgb(0,0,0)"/></g></svg>