<?xml version="1.0" encoding="UTF-8" standalone="no"?><!-- Generator: Gravit.io --><svg xmlns="http://www.w3.org/2000/svg" xmlns:xlink="http://www.w3.org/1999/xlink" style="isolation:isolate" viewBox="30 30 219.676 81.629" width="219.676pt" height="81.629pt"><g><path d=" M 30 30 L 249.203 30 L 249.203 111.629 L 30 111.629 L 30 30 Z " fill="rgb(0,0,0)"/><path d=" M 77.766 70.325 L 77.766 70.325 L 77.766 70.325 Q 77.766 83.051 72.58 89.784 L 72.58 89.784 L 72.58 89.784 Q 67.395 96.516 57.657 96.516 L 57.657 96.516 L 45.071 96.516 L 45.071 45.118 L 58.817 45.118 L 58.817 45.118 Q 67.782 45.118 72.774 51.745 L 72.774 51.745 L 72.774 51.745 Q 77.766 58.372 77.766 70.325 Z  M 67.957 70.606 L 67.957 70.606 L 67.957 70.606 Q 67.957 53.379 58.465 53.379 L 58.465 53.379 L 54.633 53.379 L 54.633 88.149 L 57.727 88.149 L 57.727 88.149 Q 62.965 88.149 65.461 83.772 L 65.461 83.772 L 65.461 83.772 Q 67.957 79.395 67.957 70.606 Z  M 108.422 88.149 L 108.422 96.516 L 85.254 96.516 L 85.254 45.118 L 108.422 45.118 L 108.422 53.379 L 94.817 53.379 L 94.817 65.614 L 107.438 65.614 L 107.438 73.911 L 94.817 73.911 L 94.817 88.149 L 108.422 88.149 L 108.422 88.149 Z  M 128.883 76.512 L 125.473 76.512 L 125.473 96.516 L 115.91 96.516 L 115.91 45.118 L 128.426 45.118 L 128.426 45.118 Q 136.371 45.118 140.151 48.879 L 140.151 48.879 L 140.151 48.879 Q 143.93 52.641 143.93 60.375 L 143.93 60.375 L 143.93 60.375 Q 143.93 70.114 137.356 73.981 L 137.356 73.981 L 147.235 96.516 L 137.004 96.516 L 128.883 76.512 L 128.883 76.512 Z  M 125.473 53.379 L 125.473 68.286 L 127.934 68.286 L 127.934 68.286 Q 131.309 68.286 132.785 66.37 L 132.785 66.37 L 132.785 66.37 Q 134.262 64.454 134.262 60.657 L 134.262 60.657 L 134.262 60.657 Q 134.262 56.719 132.698 55.049 L 132.698 55.049 L 132.698 55.049 Q 131.133 53.379 127.864 53.379 L 127.864 53.379 L 125.473 53.379 L 125.473 53.379 Z  M 174.024 45.118 L 183.516 45.118 L 183.516 78.375 L 183.516 78.375 Q 183.516 87.551 179.367 92.385 L 179.367 92.385 L 179.367 92.385 Q 175.219 97.219 167.379 97.219 L 167.379 97.219 L 167.379 97.219 Q 159.715 97.219 155.707 92.42 L 155.707 92.42 L 155.707 92.42 Q 151.699 87.622 151.699 78.235 L 151.699 78.235 L 151.699 45.118 L 161.192 45.118 L 161.192 78.938 L 161.192 78.938 Q 161.192 88.747 167.696 88.747 L 167.696 88.747 L 167.696 88.747 Q 170.719 88.747 172.371 86.25 L 172.371 86.25 L 172.371 86.25 Q 174.024 83.754 174.024 79.149 L 174.024 79.149 L 174.024 45.118 L 174.024 45.118 Z  M 215.543 88.149 L 215.543 96.516 L 192.375 96.516 L 192.375 45.118 L 215.543 45.118 L 215.543 53.379 L 201.938 53.379 L 201.938 65.614 L 214.559 65.614 L 214.559 73.911 L 201.938 73.911 L 201.938 88.149 L 215.543 88.149 L 215.543 88.149 Z " fill="rgb(255,255,255)"/><path d=" M 224.447 88.14 L 249.676 88.14 L 249.676 96.525 L 224.447 96.525 L 224.447 88.14 Z " fill="rgb(255,255,255)"/></g></svg>