<?xml version="1.0" encoding="UTF-8" standalone="no"?><!-- Generator: Gravit.io --><svg xmlns="http://www.w3.org/2000/svg" xmlns:xlink="http://www.w3.org/1999/xlink" style="isolation:isolate" viewBox="209.569 282.973 155.906 17.658" width="155.906pt" height="17.658pt"><path d=" M 287.731 293.444 L 287.731 293.444 L 287.731 293.444 Q 287.731 294.261 287.44 294.723 L 287.44 294.723 L 287.44 294.723 Q 287.15 295.186 286.587 295.585 L 286.587 295.585 L 286.587 295.585 Q 286.442 295.676 286.188 295.803 L 286.188 295.803 L 286.188 295.803 Q 285.934 295.93 285.625 296.039 L 285.625 296.039 L 285.625 296.039 Q 285.317 296.148 284.972 296.22 L 284.972 296.22 L 284.972 296.22 Q 284.627 296.293 284.337 296.293 L 284.337 296.293 L 284.337 296.293 Q 283.52 296.293 283.103 296.121 L 283.103 296.121 L 283.103 296.121 Q 282.686 295.948 282.686 295.712 L 282.686 295.712 L 282.686 295.712 Q 282.686 295.458 282.831 295.295 L 282.831 295.295 L 282.831 295.295 Q 282.976 295.132 283.085 295.113 L 283.085 295.113 L 283.284 295.259 L 283.284 295.259 Q 283.375 295.349 283.538 295.449 L 283.538 295.449 L 283.538 295.449 Q 283.702 295.549 284.065 295.549 L 284.065 295.549 L 284.065 295.549 Q 284.41 295.549 284.9 295.431 L 284.9 295.431 L 284.9 295.431 Q 285.39 295.313 285.834 295.068 L 285.834 295.068 L 285.834 295.068 Q 286.279 294.823 286.596 294.46 L 286.596 294.46 L 286.596 294.46 Q 286.914 294.097 286.914 293.625 L 286.914 293.625 L 286.914 293.625 Q 286.914 293.208 286.288 292.854 L 286.288 292.854 L 286.288 292.854 Q 285.662 292.5 284.319 292.373 L 284.319 292.373 L 284.319 292.373 Q 283.629 292.319 282.958 292.201 L 282.958 292.201 L 282.958 292.201 Q 282.286 292.083 281.751 291.874 L 281.751 291.874 L 281.751 291.874 Q 281.216 291.665 280.889 291.348 L 280.889 291.348 L 280.889 291.348 Q 280.562 291.03 280.562 290.558 L 280.562 290.558 L 280.562 290.558 Q 280.562 290.105 280.816 289.687 L 280.816 289.687 L 280.816 289.687 Q 281.07 289.27 281.442 288.916 L 281.442 288.916 L 281.442 288.916 Q 281.814 288.562 282.214 288.29 L 282.214 288.29 L 282.214 288.29 Q 282.613 288.018 282.885 287.836 L 282.885 287.836 L 282.885 287.836 Q 283.103 287.709 283.493 287.501 L 283.493 287.501 L 283.493 287.501 Q 283.883 287.292 284.328 287.101 L 284.328 287.101 L 284.328 287.101 Q 284.772 286.911 285.217 286.775 L 285.217 286.775 L 285.217 286.775 Q 285.662 286.639 285.97 286.639 L 285.97 286.639 L 285.97 286.639 Q 286.333 286.639 286.46 286.838 L 286.46 286.838 L 286.46 286.838 Q 286.587 287.038 286.587 287.401 L 286.587 287.401 L 286.587 287.401 Q 286.587 287.709 286.515 288.054 L 286.515 288.054 L 286.515 288.054 Q 286.442 288.399 286.351 288.726 L 286.351 288.726 L 286.351 288.726 Q 286.261 289.052 286.179 289.297 L 286.179 289.297 L 286.179 289.297 Q 286.097 289.542 286.061 289.615 L 286.061 289.615 L 286.061 289.615 Q 285.988 289.778 285.898 289.833 L 285.898 289.833 L 285.898 289.833 Q 285.807 289.887 285.771 289.887 L 285.771 289.887 L 285.771 289.887 Q 285.698 289.887 285.698 289.796 L 285.698 289.796 L 285.698 289.796 Q 285.698 289.742 285.725 289.588 L 285.725 289.588 L 285.725 289.588 Q 285.752 289.433 285.798 289.216 L 285.798 289.216 L 285.798 289.216 Q 285.843 288.998 285.87 288.744 L 285.87 288.744 L 285.87 288.744 Q 285.898 288.49 285.898 288.236 L 285.898 288.236 L 285.898 288.236 Q 285.898 287.836 285.861 287.655 L 285.861 287.655 L 285.861 287.655 Q 285.825 287.473 285.571 287.473 L 285.571 287.473 L 285.571 287.473 Q 285.317 287.473 284.881 287.609 L 284.881 287.609 L 284.881 287.609 Q 284.446 287.746 283.992 287.945 L 283.992 287.945 L 283.992 287.945 Q 283.502 288.163 283.039 288.508 L 283.039 288.508 L 283.039 288.508 Q 282.577 288.853 282.214 289.216 L 282.214 289.216 L 282.214 289.216 Q 281.851 289.578 281.624 289.914 L 281.624 289.914 L 281.624 289.914 Q 281.397 290.25 281.397 290.45 L 281.397 290.45 L 281.397 290.45 Q 281.397 290.667 281.696 290.858 L 281.696 290.858 L 281.696 290.858 Q 281.996 291.048 282.459 291.194 L 282.459 291.194 L 282.459 291.194 Q 282.921 291.339 283.484 291.448 L 283.484 291.448 L 283.484 291.448 Q 284.047 291.557 284.591 291.611 L 284.591 291.611 L 284.591 291.611 Q 285.045 291.665 285.589 291.756 L 285.589 291.756 L 285.589 291.756 Q 286.134 291.847 286.605 292.047 L 286.605 292.047 L 286.605 292.047 Q 287.077 292.246 287.404 292.582 L 287.404 292.582 L 287.404 292.582 Q 287.731 292.918 287.731 293.444 Z  M 295.171 294.134 L 295.171 294.134 L 295.171 294.134 Q 295.171 294.279 295.135 294.342 L 295.135 294.342 L 295.135 294.342 Q 295.098 294.406 294.953 294.442 L 294.953 294.442 L 294.953 294.442 Q 294.79 294.496 294.545 294.56 L 294.545 294.56 L 294.545 294.56 Q 294.3 294.624 294.01 294.687 L 294.01 294.687 L 294.01 294.687 Q 293.719 294.751 293.42 294.796 L 293.42 294.796 L 293.42 294.796 Q 293.12 294.841 292.866 294.841 L 292.866 294.841 L 292.866 294.841 Q 292.558 294.841 292.186 294.805 L 292.186 294.805 L 292.186 294.805 Q 291.814 294.769 291.469 294.687 L 291.469 294.687 L 291.469 294.687 Q 291.124 294.605 290.843 294.506 L 290.843 294.506 L 290.843 294.506 Q 290.562 294.406 290.435 294.261 L 290.435 294.261 L 290.435 294.261 Q 290.525 294.642 290.598 295.023 L 290.598 295.023 L 290.598 295.023 Q 290.67 295.404 290.707 295.785 L 290.707 295.785 L 290.707 295.785 Q 290.707 295.876 290.661 295.939 L 290.661 295.939 L 290.661 295.939 Q 290.616 296.003 290.416 296.003 L 290.416 296.003 L 290.416 296.003 Q 290.326 296.003 290.244 295.957 L 290.244 295.957 L 290.244 295.957 Q 290.162 295.912 290.108 295.767 L 290.108 295.767 L 290.108 295.767 Q 289.945 295.404 289.836 295.086 L 289.836 295.086 L 289.836 295.086 Q 289.727 294.769 289.645 294.442 L 289.645 294.442 L 289.645 294.442 Q 289.563 294.115 289.473 293.752 L 289.473 293.752 L 289.473 293.752 Q 289.382 293.389 289.255 292.954 L 289.255 292.954 L 289.255 292.954 Q 289.055 292.246 288.838 291.439 L 288.838 291.439 L 288.838 291.439 Q 288.62 290.631 288.438 289.896 L 288.438 289.896 L 288.438 289.896 Q 288.257 289.161 288.148 288.589 L 288.148 288.589 L 288.148 288.589 Q 288.039 288.018 288.039 287.782 L 288.039 287.782 L 288.039 287.782 Q 288.039 287.673 288.048 287.492 L 288.048 287.492 L 288.048 287.492 Q 288.057 287.31 288.103 287.138 L 288.103 287.138 L 288.103 287.138 Q 288.148 286.965 288.23 286.847 L 288.23 286.847 L 288.23 286.847 Q 288.311 286.729 288.456 286.729 L 288.456 286.729 L 288.456 286.729 Q 288.547 286.729 288.647 287.011 L 288.647 287.011 L 288.647 287.011 Q 288.747 287.292 288.828 287.628 L 288.828 287.628 L 288.828 287.628 Q 288.91 287.963 288.974 288.263 L 288.974 288.263 L 288.974 288.263 Q 289.037 288.562 289.037 288.58 L 289.037 288.58 L 289.037 288.58 Q 289.11 288.98 289.21 289.461 L 289.21 289.461 L 289.21 289.461 Q 289.309 289.941 289.418 290.431 L 289.418 290.431 L 289.418 290.431 Q 289.527 290.921 289.654 291.366 L 289.654 291.366 L 289.654 291.366 Q 289.781 291.811 289.926 292.119 L 289.926 292.119 L 289.926 292.119 Q 289.945 291.938 290.053 291.593 L 290.053 291.593 L 290.053 291.593 Q 290.162 291.248 290.344 290.849 L 290.344 290.849 L 290.344 290.849 Q 290.525 290.45 290.752 290.023 L 290.752 290.023 L 290.752 290.023 Q 290.979 289.597 291.224 289.252 L 291.224 289.252 L 291.224 289.252 Q 291.469 288.907 291.714 288.689 L 291.714 288.689 L 291.714 288.689 Q 291.959 288.471 292.177 288.471 L 292.177 288.471 L 292.177 288.471 Q 292.521 288.471 292.658 288.562 L 292.658 288.562 L 292.658 288.562 Q 292.794 288.653 292.794 288.78 L 292.794 288.78 L 292.794 288.78 Q 292.794 288.889 292.485 289.206 L 292.485 289.206 L 292.485 289.206 Q 292.177 289.524 291.796 290.041 L 291.796 290.041 L 291.796 290.041 Q 291.414 290.558 291.106 291.257 L 291.106 291.257 L 291.106 291.257 Q 290.797 291.956 290.797 292.809 L 290.797 292.809 L 290.797 292.809 Q 290.797 293.117 290.97 293.344 L 290.97 293.344 L 290.97 293.344 Q 291.142 293.571 291.424 293.716 L 291.424 293.716 L 291.424 293.716 Q 291.705 293.861 292.059 293.943 L 292.059 293.943 L 292.059 293.943 Q 292.413 294.025 292.757 294.025 L 292.757 294.025 L 292.757 294.025 Q 293.066 294.025 293.429 294.006 L 293.429 294.006 L 293.429 294.006 Q 293.792 293.988 294.109 293.961 L 294.109 293.961 L 294.109 293.961 Q 294.427 293.934 294.654 293.916 L 294.654 293.916 L 294.654 293.916 Q 294.881 293.898 294.935 293.898 L 294.935 293.898 L 294.935 293.898 Q 295.026 293.898 295.098 293.952 L 295.098 293.952 L 295.098 293.952 Q 295.171 294.006 295.171 294.134 Z  M 304.571 292.301 L 304.571 292.301 L 304.571 292.301 Q 304.571 292.627 304.272 293.108 L 304.272 293.108 L 304.272 293.108 Q 303.973 293.589 303.464 294.043 L 303.464 294.043 L 303.464 294.043 Q 302.956 294.496 302.285 294.814 L 302.285 294.814 L 302.285 294.814 Q 301.613 295.132 300.888 295.132 L 300.888 295.132 L 300.888 295.132 Q 300.561 295.132 300.198 295.023 L 300.198 295.023 L 300.198 295.023 Q 299.835 294.914 299.49 294.705 L 299.49 294.705 L 299.49 294.705 Q 299.145 294.496 298.873 294.197 L 298.873 294.197 L 298.873 294.197 Q 298.601 293.898 298.474 293.517 L 298.474 293.517 L 298.474 293.517 Q 298.365 293.625 298.211 293.879 L 298.211 293.879 L 298.211 293.879 Q 298.056 294.134 297.875 294.397 L 297.875 294.397 L 297.875 294.397 Q 297.694 294.66 297.476 294.85 L 297.476 294.85 L 297.476 294.85 Q 297.258 295.041 297.022 295.041 L 297.022 295.041 L 297.022 295.041 Q 296.786 295.041 296.632 294.796 L 296.632 294.796 L 296.632 294.796 Q 296.478 294.551 296.387 294.251 L 296.387 294.251 L 296.387 294.251 Q 296.296 293.952 296.26 293.68 L 296.26 293.68 L 296.26 293.68 Q 296.224 293.408 296.224 293.371 L 296.224 293.371 L 296.224 293.371 Q 296.224 293.154 296.351 292.546 L 296.351 292.546 L 296.351 292.546 Q 296.478 291.938 296.732 291.284 L 296.732 291.284 L 296.732 291.284 Q 296.986 290.631 297.376 290.123 L 297.376 290.123 L 297.376 290.123 Q 297.766 289.615 298.292 289.615 L 298.292 289.615 L 298.292 289.615 Q 298.492 289.615 298.556 289.787 L 298.556 289.787 L 298.556 289.787 Q 298.619 289.96 298.619 290.123 L 298.619 290.123 L 298.619 290.667 L 298.619 290.667 Q 298.71 290.74 298.81 290.767 L 298.81 290.767 L 298.81 290.767 Q 298.909 290.794 298.991 290.84 L 298.991 290.84 L 298.991 290.84 Q 299.073 290.885 299.118 290.976 L 299.118 290.976 L 299.118 290.976 Q 299.163 291.067 299.163 291.266 L 299.163 291.266 L 299.163 291.266 Q 299.163 291.393 299.145 291.493 L 299.145 291.493 L 299.145 291.493 Q 299.127 291.593 299.127 291.684 L 299.127 291.684 L 299.127 291.684 Q 299.127 292.155 299.2 292.609 L 299.2 292.609 L 299.2 292.609 Q 299.272 293.063 299.49 293.417 L 299.49 293.417 L 299.49 293.417 Q 299.708 293.771 300.089 293.997 L 300.089 293.997 L 300.089 293.997 Q 300.47 294.224 301.105 294.224 L 301.105 294.224 L 301.105 294.224 Q 301.904 294.224 302.457 293.889 L 302.457 293.889 L 302.457 293.889 Q 303.011 293.553 303.383 293.144 L 303.383 293.144 L 303.383 293.144 Q 303.755 292.736 303.973 292.4 L 303.973 292.4 L 303.973 292.4 Q 304.19 292.065 304.336 292.065 L 304.336 292.065 L 304.336 292.065 Q 304.571 292.065 304.571 292.301 Z  M 298.202 291.502 L 298.202 291.502 L 298.202 291.502 Q 298.202 291.43 298.165 291.366 L 298.165 291.366 L 298.165 291.366 Q 298.129 291.303 298.129 291.248 L 298.129 291.248 L 298.129 291.248 Q 298.129 291.175 298.165 291.121 L 298.165 291.121 L 298.165 291.121 Q 298.202 291.067 298.202 290.976 L 298.202 290.976 L 298.202 290.976 Q 298.202 290.921 298.165 290.894 L 298.165 290.894 L 298.165 290.894 Q 298.129 290.867 298.129 290.831 L 298.129 290.831 L 298.129 290.831 Q 297.966 290.867 297.793 291.139 L 297.793 291.139 L 297.793 291.139 Q 297.621 291.411 297.467 291.774 L 297.467 291.774 L 297.467 291.774 Q 297.312 292.137 297.222 292.509 L 297.222 292.509 L 297.222 292.509 Q 297.131 292.881 297.131 293.117 L 297.131 293.117 L 297.131 293.117 Q 297.131 293.244 297.204 293.535 L 297.204 293.535 L 297.204 293.535 Q 297.276 293.825 297.367 293.916 L 297.367 293.916 L 297.367 293.916 Q 297.675 293.281 297.939 292.682 L 297.939 292.682 L 297.939 292.682 Q 298.202 292.083 298.202 291.502 Z  M 309.598 287.873 L 309.598 287.873 L 309.598 287.873 Q 309.362 288.145 308.927 288.408 L 308.927 288.408 L 308.927 288.408 Q 308.491 288.671 308.056 288.889 L 308.056 288.889 L 308.056 288.889 Q 307.62 289.107 307.294 289.261 L 307.294 289.261 L 307.294 289.261 Q 306.967 289.415 306.967 289.47 L 306.967 289.47 L 306.967 289.47 Q 306.967 289.524 307.04 289.796 L 307.04 289.796 L 307.04 289.796 Q 307.112 290.068 307.212 290.441 L 307.212 290.441 L 307.212 290.441 Q 307.312 290.813 307.421 291.212 L 307.421 291.212 L 307.421 291.212 Q 307.53 291.611 307.602 291.92 L 307.602 291.92 L 307.602 291.92 Q 307.638 292.101 307.693 292.391 L 307.693 292.391 L 307.693 292.391 Q 307.747 292.682 307.793 292.972 L 307.793 292.972 L 307.793 292.972 Q 307.838 293.262 307.874 293.489 L 307.874 293.489 L 307.874 293.489 Q 307.911 293.716 307.911 293.734 L 307.911 293.734 L 307.911 293.734 Q 307.911 294.006 307.82 294.297 L 307.82 294.297 L 307.82 294.297 Q 307.729 294.587 307.53 294.587 L 307.53 294.587 L 307.53 294.587 Q 307.421 294.587 307.33 294.496 L 307.33 294.496 L 307.33 294.496 Q 307.239 294.406 307.167 294.288 L 307.167 294.288 L 307.167 294.288 Q 307.094 294.17 307.058 294.061 L 307.058 294.061 L 307.058 294.061 Q 307.021 293.952 307.021 293.898 L 307.021 293.898 L 307.021 293.898 Q 307.021 293.861 307.03 293.789 L 307.03 293.789 L 307.03 293.789 Q 307.04 293.716 307.04 293.625 L 307.04 293.625 L 307.04 293.625 Q 307.04 293.281 306.931 292.627 L 306.931 292.627 L 306.931 292.627 Q 306.894 292.428 306.785 292.01 L 306.785 292.01 L 306.785 292.01 Q 306.677 291.593 306.568 291.157 L 306.568 291.157 L 306.568 291.157 Q 306.441 290.649 306.277 290.05 L 306.277 290.05 L 306.277 290.05 Q 306.205 289.796 306.187 289.796 L 306.187 289.796 L 306.187 289.796 Q 306.06 289.796 305.76 289.951 L 305.76 289.951 L 305.76 289.951 Q 305.461 290.105 305.08 290.332 L 305.08 290.332 L 305.08 290.332 Q 304.698 290.558 304.281 290.822 L 304.281 290.822 L 304.281 290.822 Q 303.864 291.085 303.501 291.312 L 303.501 291.312 L 303.501 291.312 Q 303.138 291.538 302.875 291.693 L 302.875 291.693 L 302.875 291.693 Q 302.612 291.847 302.557 291.847 L 302.557 291.847 L 302.557 291.847 Q 302.321 291.847 302.176 291.684 L 302.176 291.684 L 302.176 291.684 Q 302.031 291.52 302.031 291.321 L 302.031 291.321 L 302.031 291.321 Q 302.031 291.212 302.33 291.003 L 302.33 291.003 L 302.33 291.003 Q 302.63 290.794 303.074 290.54 L 303.074 290.54 L 303.074 290.54 Q 303.519 290.286 304.036 290.014 L 304.036 290.014 L 304.036 290.014 Q 304.553 289.742 304.998 289.524 L 304.998 289.524 L 304.998 289.524 Q 305.443 289.306 305.742 289.161 L 305.742 289.161 L 305.742 289.161 Q 306.041 289.016 306.041 289.016 L 306.041 289.016 L 306.041 289.016 Q 305.878 288.181 305.769 287.528 L 305.769 287.528 L 305.769 287.528 Q 305.678 286.965 305.597 286.493 L 305.597 286.493 L 305.597 286.493 Q 305.515 286.022 305.515 285.985 L 305.515 285.985 L 305.515 285.985 Q 305.515 285.749 305.615 285.631 L 305.615 285.631 L 305.615 285.631 Q 305.715 285.513 305.842 285.513 L 305.842 285.513 L 305.842 285.513 Q 306.041 285.513 306.096 285.786 L 306.096 285.786 L 306.096 285.786 Q 306.295 286.766 306.468 287.528 L 306.468 287.528 L 306.468 287.528 Q 306.64 288.29 306.804 288.762 L 306.804 288.762 L 306.804 288.762 Q 306.967 288.726 307.366 288.553 L 307.366 288.553 L 307.366 288.553 Q 307.765 288.381 308.201 288.181 L 308.201 288.181 L 308.201 288.181 Q 308.637 287.982 308.99 287.827 L 308.99 287.827 L 308.99 287.827 Q 309.344 287.673 309.399 287.673 L 309.399 287.673 L 309.399 287.673 Q 309.508 287.673 309.535 287.746 L 309.535 287.746 L 309.535 287.746 Q 309.562 287.818 309.598 287.873 Z  M 315.623 294.17 L 315.623 294.17 L 315.623 294.17 Q 315.641 294.206 315.641 294.279 L 315.641 294.279 L 315.641 294.279 Q 315.641 294.388 315.478 294.605 L 315.478 294.605 L 315.478 294.605 Q 315.424 294.678 315.242 294.841 L 315.242 294.841 L 315.242 294.841 Q 315.061 295.005 314.752 295.168 L 314.752 295.168 L 314.752 295.168 Q 314.444 295.331 313.999 295.458 L 313.999 295.458 L 313.999 295.458 Q 313.554 295.585 312.956 295.585 L 312.956 295.585 L 312.956 295.585 Q 312.538 295.585 312.139 295.395 L 312.139 295.395 L 312.139 295.395 Q 311.74 295.204 311.431 294.832 L 311.431 294.832 L 311.431 294.832 Q 311.123 294.46 310.923 293.907 L 310.923 293.907 L 310.923 293.907 Q 310.723 293.353 310.723 292.609 L 310.723 292.609 L 310.723 292.609 Q 310.723 291.901 310.905 291.284 L 310.905 291.284 L 310.905 291.284 Q 311.086 290.667 311.368 290.196 L 311.368 290.196 L 311.368 290.196 Q 311.649 289.724 311.994 289.451 L 311.994 289.451 L 311.994 289.451 Q 312.339 289.179 312.665 289.179 L 312.665 289.179 L 312.665 289.179 Q 312.956 289.179 313.255 289.297 L 313.255 289.297 L 313.255 289.297 Q 313.554 289.415 313.799 289.597 L 313.799 289.597 L 313.799 289.597 Q 314.044 289.778 314.19 290.005 L 314.19 290.005 L 314.19 290.005 Q 314.335 290.232 314.335 290.468 L 314.335 290.468 L 314.335 290.468 Q 314.335 290.74 314.09 291.03 L 314.09 291.03 L 314.09 291.03 Q 313.845 291.321 313.5 291.566 L 313.5 291.566 L 313.5 291.566 Q 313.155 291.811 312.81 291.965 L 312.81 291.965 L 312.81 291.965 Q 312.466 292.119 312.266 292.119 L 312.266 292.119 L 312.266 292.119 Q 312.157 292.119 312.075 292.019 L 312.075 292.019 L 312.075 292.019 Q 311.994 291.92 311.994 291.774 L 311.994 291.774 L 311.994 291.774 Q 311.994 291.52 312.221 291.375 L 312.221 291.375 L 312.221 291.375 Q 312.447 291.23 312.72 291.112 L 312.72 291.112 L 312.72 291.112 Q 312.992 290.994 313.219 290.831 L 313.219 290.831 L 313.219 290.831 Q 313.446 290.667 313.446 290.377 L 313.446 290.377 L 313.446 290.377 Q 313.446 290.341 313.355 290.196 L 313.355 290.196 L 313.355 290.196 Q 313.264 290.05 312.865 290.05 L 312.865 290.05 L 312.865 290.05 Q 312.683 290.05 312.447 290.259 L 312.447 290.259 L 312.447 290.259 Q 312.212 290.468 311.994 290.822 L 311.994 290.822 L 311.994 290.822 Q 311.776 291.175 311.631 291.656 L 311.631 291.656 L 311.631 291.656 Q 311.486 292.137 311.486 292.7 L 311.486 292.7 L 311.486 292.7 Q 311.486 293.172 311.658 293.553 L 311.658 293.553 L 311.658 293.553 Q 311.83 293.934 312.103 294.197 L 312.103 294.197 L 312.103 294.197 Q 312.375 294.46 312.738 294.605 L 312.738 294.605 L 312.738 294.605 Q 313.101 294.751 313.482 294.751 L 313.482 294.751 L 313.482 294.751 Q 313.754 294.751 314.072 294.633 L 314.072 294.633 L 314.072 294.633 Q 314.389 294.515 314.671 294.379 L 314.671 294.379 L 314.671 294.379 Q 314.952 294.242 315.161 294.124 L 315.161 294.124 L 315.161 294.124 Q 315.369 294.006 315.424 294.006 L 315.424 294.006 L 315.424 294.006 Q 315.478 294.006 315.542 294.061 L 315.542 294.061 L 315.542 294.061 Q 315.605 294.115 315.623 294.17 Z  M 321.231 292.464 L 321.231 292.464 L 321.231 292.464 Q 321.231 293.281 321.04 293.898 L 321.04 293.898 L 321.04 293.898 Q 320.85 294.515 320.578 294.923 L 320.578 294.923 L 320.578 294.923 Q 320.305 295.331 320.024 295.531 L 320.024 295.531 L 320.024 295.531 Q 319.743 295.731 319.561 295.731 L 319.561 295.731 L 319.561 295.731 Q 319.307 295.731 319.071 295.504 L 319.071 295.504 L 319.071 295.504 Q 318.835 295.277 318.835 295.077 L 318.835 295.077 L 318.835 295.077 Q 318.835 294.787 319.071 294.787 L 319.071 294.787 L 319.071 294.787 Q 319.162 294.787 319.253 294.85 L 319.253 294.85 L 319.253 294.85 Q 319.344 294.914 319.416 294.95 L 319.416 294.95 L 319.416 294.95 Q 319.725 294.696 320.006 294.115 L 320.006 294.115 L 320.006 294.115 Q 320.287 293.535 320.287 292.464 L 320.287 292.464 L 320.287 292.464 Q 320.287 292.028 320.196 291.684 L 320.196 291.684 L 320.196 291.684 Q 320.106 291.339 319.988 291.103 L 319.988 291.103 L 319.988 291.103 Q 319.87 290.867 319.743 290.74 L 319.743 290.74 L 319.743 290.74 Q 319.616 290.613 319.561 290.613 L 319.561 290.613 L 319.561 290.613 Q 319.38 290.613 319.207 290.976 L 319.207 290.976 L 319.207 290.976 Q 319.035 291.339 318.908 291.802 L 318.908 291.802 L 318.908 291.802 Q 318.781 292.264 318.699 292.709 L 318.699 292.709 L 318.699 292.709 Q 318.618 293.154 318.618 293.317 L 318.618 293.317 L 318.618 293.317 Q 318.636 293.426 318.654 293.517 L 318.654 293.517 L 318.654 293.517 Q 318.672 293.607 318.69 293.698 L 318.69 293.698 L 318.69 293.698 Q 318.708 293.789 318.708 293.879 L 318.708 293.879 L 318.708 293.879 Q 318.708 294.224 318.472 294.496 L 318.472 294.496 L 318.472 294.496 Q 318.237 294.769 318.019 294.769 L 318.019 294.769 L 318.019 294.769 Q 317.91 294.769 317.846 294.614 L 317.846 294.614 L 317.846 294.614 Q 317.783 294.46 317.747 294.224 L 317.747 294.224 L 317.747 294.224 Q 317.71 293.988 317.683 293.734 L 317.683 293.734 L 317.683 293.734 Q 317.656 293.48 317.62 293.281 L 317.62 293.281 L 317.62 293.281 Q 317.474 292.954 317.238 292.246 L 317.238 292.246 L 317.238 292.246 Q 317.003 291.538 316.739 290.731 L 316.739 290.731 L 316.739 290.731 Q 316.476 289.923 316.249 289.161 L 316.249 289.161 L 316.249 289.161 Q 316.023 288.399 315.914 287.945 L 315.914 287.945 L 315.914 287.945 Q 315.66 286.965 315.524 286.23 L 315.524 286.23 L 315.524 286.23 Q 315.387 285.495 315.306 284.942 L 315.306 284.942 L 315.306 284.942 Q 315.224 284.388 315.206 283.989 L 315.206 283.989 L 315.206 283.989 Q 315.188 283.59 315.188 283.318 L 315.188 283.318 L 315.188 283.318 Q 315.188 283.154 315.324 283.064 L 315.324 283.064 L 315.324 283.064 Q 315.46 282.973 315.569 282.973 L 315.569 282.973 L 315.569 282.973 Q 315.732 282.973 315.805 283.036 L 315.805 283.036 L 315.805 283.036 Q 315.877 283.1 315.905 283.299 L 315.905 283.299 L 315.905 283.299 Q 315.932 283.499 315.959 283.88 L 315.959 283.88 L 315.959 283.88 Q 315.986 284.261 316.059 284.896 L 316.059 284.896 L 316.059 284.896 Q 316.095 285.205 316.195 285.749 L 316.195 285.749 L 316.195 285.749 Q 316.295 286.294 316.458 286.965 L 316.458 286.965 L 316.458 286.965 Q 316.621 287.637 316.812 288.372 L 316.812 288.372 L 316.812 288.372 Q 317.003 289.107 317.211 289.778 L 317.211 289.778 L 317.211 289.778 Q 317.42 290.45 317.629 291.012 L 317.629 291.012 L 317.629 291.012 Q 317.837 291.575 318.019 291.901 L 318.019 291.901 L 318.019 291.901 Q 318.182 291.248 318.418 290.722 L 318.418 290.722 L 318.418 290.722 Q 318.618 290.286 318.908 289.914 L 318.908 289.914 L 318.908 289.914 Q 319.198 289.542 319.616 289.542 L 319.616 289.542 L 319.616 289.542 Q 319.779 289.542 320.051 289.687 L 320.051 289.687 L 320.051 289.687 Q 320.324 289.833 320.587 290.177 L 320.587 290.177 L 320.587 290.177 Q 320.85 290.522 321.04 291.085 L 321.04 291.085 L 321.04 291.085 Q 321.231 291.647 321.231 292.464 Z  M 326.167 292.155 L 326.167 292.155 L 326.167 292.155 Q 326.167 292.555 326.058 292.918 L 326.058 292.918 L 326.058 292.918 Q 325.949 293.281 325.768 293.553 L 325.768 293.553 L 325.768 293.553 Q 325.586 293.825 325.341 293.979 L 325.341 293.979 L 325.341 293.979 Q 325.096 294.134 324.806 294.134 L 324.806 294.134 L 324.806 294.134 Q 324.298 294.134 324.007 293.843 L 324.007 293.843 L 324.007 293.843 Q 323.717 293.553 323.563 293.172 L 323.563 293.172 L 323.563 293.172 Q 323.409 292.791 323.363 292.4 L 323.363 292.4 L 323.363 292.4 Q 323.318 292.01 323.318 291.811 L 323.318 291.811 L 323.318 291.811 Q 323.318 291.484 323.418 291.076 L 323.418 291.076 L 323.418 291.076 Q 323.517 290.667 323.69 290.323 L 323.69 290.323 L 323.69 290.323 Q 323.862 289.978 324.08 289.742 L 324.08 289.742 L 324.08 289.742 Q 324.298 289.506 324.534 289.506 L 324.534 289.506 L 324.534 289.506 Q 324.588 289.506 324.706 289.542 L 324.706 289.542 L 324.706 289.542 Q 324.824 289.578 324.951 289.651 L 324.951 289.651 L 324.951 289.651 Q 325.078 289.724 325.178 289.833 L 325.178 289.833 L 325.178 289.833 Q 325.278 289.941 325.314 290.087 L 325.314 290.087 L 325.314 290.087 Q 325.514 290.105 325.713 290.232 L 325.713 290.232 L 325.713 290.232 Q 325.913 290.359 325.931 290.431 L 325.931 290.431 L 325.931 290.431 Q 326.076 290.903 326.122 291.375 L 326.122 291.375 L 326.122 291.375 Q 326.167 291.847 326.167 292.155 Z  M 325.35 291.829 L 325.35 291.829 L 325.35 291.829 Q 325.35 291.557 325.296 291.257 L 325.296 291.257 L 325.296 291.257 Q 325.242 290.958 325.078 290.649 L 325.078 290.649 L 325.078 290.649 Q 325.042 290.667 324.987 290.667 L 324.987 290.667 L 324.987 290.667 Q 324.915 290.667 324.869 290.649 L 324.869 290.649 L 324.869 290.649 Q 324.824 290.631 324.788 290.631 L 324.788 290.631 L 324.788 290.631 Q 324.57 290.631 324.443 290.749 L 324.443 290.749 L 324.443 290.749 Q 324.316 290.867 324.252 291.058 L 324.252 291.058 L 324.252 291.058 Q 324.189 291.248 324.171 291.466 L 324.171 291.466 L 324.171 291.466 Q 324.153 291.684 324.153 291.883 L 324.153 291.883 L 324.153 291.883 Q 324.153 292.083 324.171 292.328 L 324.171 292.328 L 324.171 292.328 Q 324.189 292.573 324.252 292.791 L 324.252 292.791 L 324.252 292.791 Q 324.316 293.008 324.425 293.163 L 324.425 293.163 L 324.425 293.163 Q 324.534 293.317 324.715 293.317 L 324.715 293.317 L 324.715 293.317 Q 324.897 293.317 325.024 293.126 L 325.024 293.126 L 325.024 293.126 Q 325.151 292.936 325.223 292.682 L 325.223 292.682 L 325.223 292.682 Q 325.296 292.428 325.323 292.183 L 325.323 292.183 L 325.323 292.183 Q 325.35 291.938 325.35 291.829 Z  M 336.62 292.301 L 336.62 292.301 L 336.62 292.301 Q 336.62 292.627 336.321 293.108 L 336.321 293.108 L 336.321 293.108 Q 336.021 293.589 335.513 294.043 L 335.513 294.043 L 335.513 294.043 Q 335.005 294.496 334.333 294.814 L 334.333 294.814 L 334.333 294.814 Q 333.662 295.132 332.936 295.132 L 332.936 295.132 L 332.936 295.132 Q 332.609 295.132 332.246 295.023 L 332.246 295.023 L 332.246 295.023 Q 331.884 294.914 331.539 294.705 L 331.539 294.705 L 331.539 294.705 Q 331.194 294.496 330.922 294.197 L 330.922 294.197 L 330.922 294.197 Q 330.649 293.898 330.522 293.517 L 330.522 293.517 L 330.522 293.517 Q 330.414 293.625 330.259 293.879 L 330.259 293.879 L 330.259 293.879 Q 330.105 294.134 329.924 294.397 L 329.924 294.397 L 329.924 294.397 Q 329.742 294.66 329.524 294.85 L 329.524 294.85 L 329.524 294.85 Q 329.307 295.041 329.071 295.041 L 329.071 295.041 L 329.071 295.041 Q 328.835 295.041 328.68 294.796 L 328.68 294.796 L 328.68 294.796 Q 328.526 294.551 328.435 294.251 L 328.435 294.251 L 328.435 294.251 Q 328.345 293.952 328.308 293.68 L 328.308 293.68 L 328.308 293.68 Q 328.272 293.408 328.272 293.371 L 328.272 293.371 L 328.272 293.371 Q 328.272 293.154 328.399 292.546 L 328.399 292.546 L 328.399 292.546 Q 328.526 291.938 328.78 291.284 L 328.78 291.284 L 328.78 291.284 Q 329.034 290.631 329.425 290.123 L 329.425 290.123 L 329.425 290.123 Q 329.815 289.615 330.341 289.615 L 330.341 289.615 L 330.341 289.615 Q 330.541 289.615 330.604 289.787 L 330.604 289.787 L 330.604 289.787 Q 330.668 289.96 330.668 290.123 L 330.668 290.123 L 330.668 290.667 L 330.668 290.667 Q 330.758 290.74 330.858 290.767 L 330.858 290.767 L 330.858 290.767 Q 330.958 290.794 331.04 290.84 L 331.04 290.84 L 331.04 290.84 Q 331.121 290.885 331.167 290.976 L 331.167 290.976 L 331.167 290.976 Q 331.212 291.067 331.212 291.266 L 331.212 291.266 L 331.212 291.266 Q 331.212 291.393 331.194 291.493 L 331.194 291.493 L 331.194 291.493 Q 331.176 291.593 331.176 291.684 L 331.176 291.684 L 331.176 291.684 Q 331.176 292.155 331.248 292.609 L 331.248 292.609 L 331.248 292.609 Q 331.321 293.063 331.539 293.417 L 331.539 293.417 L 331.539 293.417 Q 331.756 293.771 332.138 293.997 L 332.138 293.997 L 332.138 293.997 Q 332.519 294.224 333.154 294.224 L 333.154 294.224 L 333.154 294.224 Q 333.952 294.224 334.506 293.889 L 334.506 293.889 L 334.506 293.889 Q 335.059 293.553 335.431 293.144 L 335.431 293.144 L 335.431 293.144 Q 335.803 292.736 336.021 292.4 L 336.021 292.4 L 336.021 292.4 Q 336.239 292.065 336.384 292.065 L 336.384 292.065 L 336.384 292.065 Q 336.62 292.065 336.62 292.301 Z  M 330.25 291.502 L 330.25 291.502 L 330.25 291.502 Q 330.25 291.43 330.214 291.366 L 330.214 291.366 L 330.214 291.366 Q 330.178 291.303 330.178 291.248 L 330.178 291.248 L 330.178 291.248 Q 330.178 291.175 330.214 291.121 L 330.214 291.121 L 330.214 291.121 Q 330.25 291.067 330.25 290.976 L 330.25 290.976 L 330.25 290.976 Q 330.25 290.921 330.214 290.894 L 330.214 290.894 L 330.214 290.894 Q 330.178 290.867 330.178 290.831 L 330.178 290.831 L 330.178 290.831 Q 330.014 290.867 329.842 291.139 L 329.842 291.139 L 329.842 291.139 Q 329.67 291.411 329.515 291.774 L 329.515 291.774 L 329.515 291.774 Q 329.361 292.137 329.27 292.509 L 329.27 292.509 L 329.27 292.509 Q 329.18 292.881 329.18 293.117 L 329.18 293.117 L 329.18 293.117 Q 329.18 293.244 329.252 293.535 L 329.252 293.535 L 329.252 293.535 Q 329.325 293.825 329.415 293.916 L 329.415 293.916 L 329.415 293.916 Q 329.724 293.281 329.987 292.682 L 329.987 292.682 L 329.987 292.682 Q 330.25 292.083 330.25 291.502 Z  M 341.121 290.54 L 341.121 290.54 L 341.121 290.54 Q 341.121 290.667 341.012 290.749 L 341.012 290.749 L 341.012 290.749 Q 340.903 290.831 340.758 290.885 L 340.758 290.885 L 340.758 290.885 Q 340.612 290.94 340.467 290.967 L 340.467 290.967 L 340.467 290.967 Q 340.322 290.994 340.231 290.994 L 340.231 290.994 L 340.231 290.994 Q 339.959 290.994 339.868 290.958 L 339.868 290.958 L 339.868 290.958 Q 339.778 290.921 339.723 290.921 L 339.723 290.921 L 339.723 290.921 Q 339.27 290.921 338.997 290.994 L 338.997 290.994 L 338.997 290.994 Q 338.725 291.067 338.571 291.23 L 338.571 291.23 L 338.571 291.23 Q 338.417 291.393 338.371 291.638 L 338.371 291.638 L 338.371 291.638 Q 338.326 291.883 338.326 292.228 L 338.326 292.228 L 338.326 292.228 Q 338.326 292.809 338.371 293.154 L 338.371 293.154 L 338.371 293.154 Q 338.417 293.498 338.462 293.716 L 338.462 293.716 L 338.462 293.716 Q 338.507 293.934 338.553 294.052 L 338.553 294.052 L 338.553 294.052 Q 338.598 294.17 338.598 294.279 L 338.598 294.279 L 338.598 294.279 Q 338.598 294.424 338.444 294.587 L 338.444 294.587 L 338.444 294.587 Q 338.29 294.751 338.163 294.751 L 338.163 294.751 L 338.163 294.751 Q 337.945 294.751 337.772 294.36 L 337.772 294.36 L 337.772 294.36 Q 337.6 293.97 337.482 293.435 L 337.482 293.435 L 337.482 293.435 Q 337.364 292.899 337.291 292.373 L 337.291 292.373 L 337.291 292.373 Q 337.219 291.847 337.219 291.575 L 337.219 291.575 L 337.219 291.575 Q 337.219 291.266 337.273 290.985 L 337.273 290.985 L 337.273 290.985 Q 337.328 290.704 337.419 290.495 L 337.419 290.495 L 337.419 290.495 Q 337.509 290.286 337.618 290.159 L 337.618 290.159 L 337.618 290.159 Q 337.727 290.032 337.836 290.032 L 337.836 290.032 L 337.836 290.032 Q 337.927 290.032 337.981 290.096 L 337.981 290.096 L 337.981 290.096 Q 338.036 290.159 338.072 290.241 L 338.072 290.241 L 338.072 290.241 Q 338.108 290.323 338.153 290.386 L 338.153 290.386 L 338.153 290.386 Q 338.199 290.45 338.271 290.45 L 338.271 290.45 L 338.271 290.45 Q 338.435 290.45 338.798 290.286 L 338.798 290.286 L 338.798 290.286 Q 339.161 290.123 339.687 290.123 L 339.687 290.123 L 339.687 290.123 Q 340.177 290.123 340.422 290.15 L 340.422 290.15 L 340.422 290.15 Q 340.667 290.177 340.903 290.268 L 340.903 290.268 L 340.903 290.268 Q 340.957 290.286 341.039 290.35 L 341.039 290.35 L 341.039 290.35 Q 341.121 290.413 341.121 290.54 Z  M 347.708 293.154 L 347.708 293.154 L 347.708 293.154 Q 347.708 293.244 347.627 293.326 L 347.627 293.326 L 347.627 293.326 Q 347.545 293.408 347.527 293.498 L 347.527 293.498 L 347.527 293.498 Q 347.527 293.698 347.608 293.879 L 347.608 293.879 L 347.608 293.879 Q 347.69 294.061 347.69 294.315 L 347.69 294.315 L 347.69 294.315 Q 347.69 294.551 347.545 294.551 L 347.545 294.551 L 347.545 294.551 Q 347.363 294.551 347.282 294.596 L 347.282 294.596 L 347.282 294.596 Q 347.2 294.642 347 294.678 L 347 294.678 L 347 294.678 Q 346.892 294.678 346.764 294.478 L 346.764 294.478 L 346.764 294.478 Q 346.692 294.388 346.637 294.261 L 346.637 294.261 L 346.637 294.261 Q 346.637 294.242 346.538 294.333 L 346.538 294.333 L 346.538 294.333 Q 346.438 294.424 346.211 294.542 L 346.211 294.542 L 346.211 294.542 Q 345.984 294.66 345.594 294.76 L 345.594 294.76 L 345.594 294.76 Q 345.204 294.859 344.605 294.859 L 344.605 294.859 L 344.605 294.859 Q 344.097 294.859 343.716 294.633 L 343.716 294.633 L 343.716 294.633 Q 343.335 294.406 343.09 294.043 L 343.09 294.043 L 343.09 294.043 Q 342.845 293.68 342.727 293.217 L 342.727 293.217 L 342.727 293.217 Q 342.609 292.754 342.609 292.282 L 342.609 292.282 L 342.609 292.282 Q 342.609 291.847 342.709 291.457 L 342.709 291.457 L 342.709 291.457 Q 342.808 291.067 342.99 290.767 L 342.99 290.767 L 342.99 290.767 Q 343.171 290.468 343.443 290.286 L 343.443 290.286 L 343.443 290.286 Q 343.716 290.105 344.079 290.105 L 344.079 290.105 L 344.079 290.105 Q 344.423 290.105 344.768 290.323 L 344.768 290.323 L 344.768 290.323 Q 345.113 290.54 345.385 290.794 L 345.385 290.794 L 345.385 290.794 Q 345.657 291.048 345.83 291.257 L 345.83 291.257 L 345.83 291.257 Q 346.002 291.466 346.002 291.466 L 346.002 291.466 L 346.002 291.466 Q 345.748 290.05 345.549 288.907 L 345.549 288.907 L 345.549 288.907 Q 345.458 288.417 345.376 287.936 L 345.376 287.936 L 345.376 287.936 Q 345.295 287.455 345.222 287.074 L 345.222 287.074 L 345.222 287.074 Q 345.149 286.693 345.104 286.43 L 345.104 286.43 L 345.104 286.43 Q 345.059 286.167 345.059 286.112 L 345.059 286.112 L 345.059 286.112 Q 345.04 286.003 345.022 285.722 L 345.022 285.722 L 345.022 285.722 Q 345.004 285.441 344.986 285.132 L 344.986 285.132 L 344.986 285.132 Q 344.968 284.824 344.95 284.57 L 344.95 284.57 L 344.95 284.57 Q 344.932 284.316 344.913 284.243 L 344.913 284.243 L 344.913 284.243 Q 344.859 284.062 344.777 283.789 L 344.777 283.789 L 344.777 283.789 Q 344.696 283.517 344.696 283.481 L 344.696 283.481 L 344.696 283.481 Q 344.696 283.39 344.786 283.254 L 344.786 283.254 L 344.786 283.254 Q 344.877 283.118 345.022 283.118 L 345.022 283.118 L 345.022 283.118 Q 345.131 283.118 345.222 283.136 L 345.222 283.136 L 345.222 283.136 Q 345.313 283.154 345.385 283.245 L 345.385 283.245 L 345.385 283.245 Q 345.458 283.336 345.521 283.526 L 345.521 283.526 L 345.521 283.526 Q 345.585 283.717 345.639 284.062 L 345.639 284.062 L 345.639 284.062 Q 345.657 284.243 345.748 284.751 L 345.748 284.751 L 345.748 284.751 Q 345.839 285.259 345.93 285.858 L 345.93 285.858 L 345.93 285.858 Q 346.02 286.457 346.111 287.002 L 346.111 287.002 L 346.111 287.002 Q 346.202 287.546 346.238 287.8 L 346.238 287.8 L 346.238 287.8 Q 346.329 288.49 346.483 289.297 L 346.483 289.297 L 346.483 289.297 Q 346.637 290.105 346.801 290.849 L 346.801 290.849 L 346.801 290.849 Q 346.964 291.593 347.127 292.165 L 347.127 292.165 L 347.127 292.165 Q 347.291 292.736 347.418 292.936 L 347.418 292.936 L 347.418 292.936 Q 347.454 293.008 347.563 293.036 L 347.563 293.036 L 347.563 293.036 Q 347.672 293.063 347.708 293.154 Z  M 346.365 293.517 L 346.365 293.517 L 346.365 293.517 Q 346.347 293.462 346.138 293.054 L 346.138 293.054 L 346.138 293.054 Q 345.93 292.645 345.612 292.165 L 345.612 292.165 L 345.612 292.165 Q 345.295 291.684 344.904 291.303 L 344.904 291.303 L 344.904 291.303 Q 344.514 290.921 344.151 290.921 L 344.151 290.921 L 344.151 290.921 Q 343.843 290.921 343.652 291.393 L 343.652 291.393 L 343.652 291.393 Q 343.462 291.865 343.462 292.482 L 343.462 292.482 L 343.462 292.482 Q 343.462 293.172 343.87 293.589 L 343.87 293.589 L 343.87 293.589 Q 344.278 294.006 344.786 294.006 L 344.786 294.006 L 344.786 294.006 Q 345.222 294.006 345.694 293.861 L 345.694 293.861 L 345.694 293.861 Q 346.166 293.716 346.365 293.517 Z  M 350.176 287.727 L 350.176 287.727 L 350.176 287.727 Q 350.176 287.764 350.049 287.873 L 350.049 287.873 L 350.049 287.873 Q 349.922 287.982 349.75 288.099 L 349.75 288.099 L 349.75 288.099 Q 349.577 288.217 349.396 288.308 L 349.396 288.308 L 349.396 288.308 Q 349.214 288.399 349.106 288.399 L 349.106 288.399 L 349.106 288.399 Q 349.033 288.399 348.915 288.39 L 348.915 288.39 L 348.915 288.39 Q 348.797 288.381 348.679 288.326 L 348.679 288.326 L 348.679 288.326 Q 348.561 288.272 348.47 288.172 L 348.47 288.172 L 348.47 288.172 Q 348.38 288.072 348.38 287.909 L 348.38 287.909 L 348.38 287.909 Q 348.38 287.655 348.561 287.428 L 348.561 287.428 L 348.561 287.428 Q 348.743 287.201 349.033 287.201 L 349.033 287.201 L 349.033 287.201 Q 349.087 287.201 349.278 287.247 L 349.278 287.247 L 349.278 287.247 Q 349.468 287.292 349.668 287.364 L 349.668 287.364 L 349.668 287.364 Q 349.868 287.437 350.022 287.528 L 350.022 287.528 L 350.022 287.528 Q 350.176 287.619 350.176 287.727 Z  M 350.775 294.515 L 350.775 294.515 L 350.775 294.515 Q 350.775 294.642 350.585 294.732 L 350.585 294.732 L 350.585 294.732 Q 350.394 294.823 350.303 294.823 L 350.303 294.823 L 350.303 294.823 Q 350.122 294.823 349.977 294.587 L 349.977 294.587 L 349.977 294.587 Q 349.831 294.351 349.723 294.043 L 349.723 294.043 L 349.723 294.043 Q 349.614 293.734 349.541 293.453 L 349.541 293.453 L 349.541 293.453 Q 349.468 293.172 349.432 293.063 L 349.432 293.063 L 349.432 293.063 Q 349.378 292.881 349.287 292.627 L 349.287 292.627 L 349.287 292.627 Q 349.196 292.373 349.115 292.137 L 349.115 292.137 L 349.115 292.137 Q 349.033 291.901 348.978 291.72 L 348.978 291.72 L 348.978 291.72 Q 348.924 291.538 348.924 291.52 L 348.924 291.52 L 348.924 291.52 Q 348.924 291.266 349.024 291.048 L 349.024 291.048 L 349.024 291.048 Q 349.124 290.831 349.269 290.831 L 349.269 290.831 L 349.269 290.831 Q 349.432 290.831 349.614 291.085 L 349.614 291.085 L 349.614 291.085 Q 349.795 291.339 349.968 291.729 L 349.968 291.729 L 349.968 291.729 Q 350.14 292.119 350.285 292.582 L 350.285 292.582 L 350.285 292.582 Q 350.43 293.045 350.539 293.453 L 350.539 293.453 L 350.539 293.453 Q 350.648 293.861 350.712 294.161 L 350.712 294.161 L 350.712 294.161 Q 350.775 294.46 350.775 294.515 Z  M 357.363 293.843 L 357.363 293.843 L 357.363 293.843 Q 357.363 293.952 357.29 294.061 L 357.29 294.061 L 357.29 294.061 Q 357.217 294.17 357.118 294.261 L 357.118 294.261 L 357.118 294.261 Q 357.018 294.351 356.9 294.415 L 356.9 294.415 L 356.9 294.415 Q 356.782 294.478 356.691 294.478 L 356.691 294.478 L 356.691 294.478 Q 356.383 294.478 355.902 294.342 L 355.902 294.342 L 355.902 294.342 Q 355.421 294.206 355.131 293.916 L 355.131 293.916 L 355.131 293.916 Q 354.822 293.607 354.586 293.181 L 354.586 293.181 L 354.586 293.181 Q 354.35 292.754 354.06 291.92 L 354.06 291.92 L 354.06 291.92 Q 353.86 292.718 353.597 293.498 L 353.597 293.498 L 353.597 293.498 Q 353.334 294.279 352.753 294.932 L 352.753 294.932 L 352.753 294.932 Q 352.717 294.968 352.644 294.968 L 352.644 294.968 L 352.644 294.968 Q 352.517 294.968 352.372 294.841 L 352.372 294.841 L 352.372 294.841 Q 352.227 294.714 352.227 294.587 L 352.227 294.587 L 352.227 294.587 Q 352.227 294.46 352.2 293.997 L 352.2 293.997 L 352.2 293.997 Q 352.172 293.535 352.136 292.963 L 352.136 292.963 L 352.136 292.963 Q 352.1 292.391 352.073 291.802 L 352.073 291.802 L 352.073 291.802 Q 352.045 291.212 352.045 290.831 L 352.045 290.831 L 352.045 290.831 Q 352.045 290.649 352.064 290.35 L 352.064 290.35 L 352.064 290.35 Q 352.082 290.05 352.172 289.833 L 352.172 289.833 L 352.172 289.833 Q 352.191 289.796 352.309 289.687 L 352.309 289.687 L 352.309 289.687 Q 352.427 289.578 352.572 289.578 L 352.572 289.578 L 352.572 289.578 Q 352.699 289.578 352.717 289.742 L 352.717 289.742 L 352.717 289.742 Q 352.735 289.905 352.735 290.105 L 352.735 290.105 L 352.735 292.972 L 352.735 292.972 Q 352.735 293.063 352.762 293.226 L 352.762 293.226 L 352.762 293.226 Q 352.789 293.389 352.844 293.462 L 352.844 293.462 L 352.844 293.462 Q 353.044 293.027 353.216 292.437 L 353.216 292.437 L 353.216 292.437 Q 353.388 291.847 353.552 291.312 L 353.552 291.312 L 353.552 291.312 Q 353.715 290.776 353.878 290.404 L 353.878 290.404 L 353.878 290.404 Q 354.042 290.032 354.205 290.032 L 354.205 290.032 L 354.205 290.032 Q 354.386 290.032 354.495 290.105 L 354.495 290.105 L 354.495 290.105 Q 354.604 290.177 354.677 290.395 L 354.677 290.395 L 354.677 290.395 Q 354.768 290.921 354.822 291.33 L 354.822 291.33 L 354.822 291.33 Q 354.876 291.738 354.958 292.065 L 354.958 292.065 L 354.958 292.065 Q 355.04 292.391 355.194 292.673 L 355.194 292.673 L 355.194 292.673 Q 355.348 292.954 355.62 293.19 L 355.62 293.19 L 355.62 293.19 Q 355.875 293.426 356.192 293.535 L 356.192 293.535 L 356.192 293.535 Q 356.51 293.644 356.746 293.644 L 356.746 293.644 L 356.746 293.644 Q 356.855 293.644 356.982 293.598 L 356.982 293.598 L 356.982 293.598 Q 357.109 293.553 357.163 293.553 L 357.163 293.553 L 357.163 293.553 Q 357.236 293.553 357.299 293.68 L 357.299 293.68 L 357.299 293.68 Q 357.363 293.807 357.363 293.843 Z  M 362.807 294.478 L 362.807 294.478 L 362.807 294.478 Q 362.807 294.678 362.662 294.751 L 362.662 294.751 L 362.662 294.751 Q 362.517 294.823 362.517 294.95 L 362.517 294.95 L 362.517 294.95 Q 362.498 294.932 362.589 295.15 L 362.589 295.15 L 362.589 295.15 Q 362.68 295.368 362.752 295.603 L 362.752 295.603 L 362.752 295.603 Q 362.88 296.093 362.979 296.456 L 362.979 296.456 L 362.979 296.456 Q 363.079 296.819 363.143 297.128 L 363.143 297.128 L 363.143 297.128 Q 363.206 297.436 363.242 297.745 L 363.242 297.745 L 363.242 297.745 Q 363.279 298.053 363.279 298.434 L 363.279 298.434 L 363.279 298.434 Q 363.279 298.816 363.152 299.215 L 363.152 299.215 L 363.152 299.215 Q 363.025 299.614 362.789 299.923 L 362.789 299.923 L 362.789 299.923 Q 362.553 300.231 362.208 300.431 L 362.208 300.431 L 362.208 300.431 Q 361.863 300.63 361.428 300.63 L 361.428 300.63 L 361.428 300.63 Q 360.756 300.63 360.366 300.358 L 360.366 300.358 L 360.366 300.358 Q 359.976 300.086 359.776 299.741 L 359.776 299.741 L 359.776 299.741 Q 359.577 299.396 359.522 299.061 L 359.522 299.061 L 359.522 299.061 Q 359.468 298.725 359.468 298.616 L 359.468 298.616 L 359.468 298.616 Q 359.468 297.945 359.813 297.273 L 359.813 297.273 L 359.813 297.273 Q 360.157 296.602 360.575 296.057 L 360.575 296.057 L 360.575 296.057 Q 360.992 295.513 361.337 295.15 L 361.337 295.15 L 361.337 295.15 Q 361.682 294.787 361.682 294.732 L 361.682 294.732 L 361.482 294.134 L 361.482 294.134 Q 361.301 294.351 361.165 294.614 L 361.165 294.614 L 361.165 294.614 Q 361.028 294.878 360.874 295.104 L 360.874 295.104 L 360.874 295.104 Q 360.72 295.331 360.511 295.486 L 360.511 295.486 L 360.511 295.486 Q 360.303 295.64 359.994 295.64 L 359.994 295.64 L 359.994 295.64 Q 359.667 295.64 359.341 295.44 L 359.341 295.44 L 359.341 295.44 Q 359.014 295.241 358.76 294.841 L 358.76 294.841 L 358.76 294.841 Q 358.506 294.442 358.352 293.879 L 358.352 293.879 L 358.352 293.879 Q 358.197 293.317 358.197 292.573 L 358.197 292.573 L 358.197 292.573 Q 358.197 292.155 358.324 291.529 L 358.324 291.529 L 358.324 291.529 Q 358.452 290.903 358.724 290.323 L 358.724 290.323 L 358.724 290.323 Q 358.996 289.742 359.404 289.334 L 359.404 289.334 L 359.404 289.334 Q 359.813 288.925 360.357 288.925 L 360.357 288.925 L 360.357 288.925 Q 360.666 288.925 360.929 289.034 L 360.929 289.034 L 360.929 289.034 Q 361.192 289.143 361.192 289.306 L 361.192 289.306 L 361.192 289.306 Q 361.192 289.451 361.137 289.542 L 361.137 289.542 L 361.137 289.542 Q 361.083 289.633 360.992 289.724 L 360.992 289.724 L 360.992 289.724 Q 360.938 289.687 360.874 289.651 L 360.874 289.651 L 360.874 289.651 Q 360.811 289.615 360.702 289.615 L 360.702 289.615 L 360.702 289.615 Q 360.303 289.615 359.985 289.969 L 359.985 289.969 L 359.985 289.969 Q 359.667 290.323 359.45 290.84 L 359.45 290.84 L 359.45 290.84 Q 359.232 291.357 359.114 291.92 L 359.114 291.92 L 359.114 291.92 Q 358.996 292.482 358.996 292.899 L 358.996 292.899 L 358.996 292.899 Q 358.996 293.825 359.304 294.306 L 359.304 294.306 L 359.304 294.306 Q 359.613 294.787 359.958 294.787 L 359.958 294.787 L 359.958 294.787 Q 360.121 294.787 360.312 294.542 L 360.312 294.542 L 360.312 294.542 Q 360.502 294.297 360.675 293.997 L 360.675 293.997 L 360.675 293.997 Q 360.847 293.698 360.974 293.426 L 360.974 293.426 L 360.974 293.426 Q 361.101 293.154 361.119 293.099 L 361.119 293.099 L 361.119 293.099 Q 361.155 292.918 361.155 292.682 L 361.155 292.682 L 361.155 292.682 Q 361.155 292.482 361.146 292.237 L 361.146 292.237 L 361.146 292.237 Q 361.137 291.992 361.137 291.738 L 361.137 291.738 L 361.137 291.738 Q 361.137 291.266 361.21 290.949 L 361.21 290.949 L 361.21 290.949 Q 361.283 290.631 361.573 290.631 L 361.573 290.631 L 361.573 290.631 Q 361.863 290.631 361.99 290.803 L 361.99 290.803 L 361.99 290.803 Q 362.117 290.976 362.117 291.212 L 362.117 291.212 L 362.117 291.212 Q 362.117 291.375 362.108 291.602 L 362.108 291.602 L 362.108 291.602 Q 362.099 291.829 362.099 292.037 L 362.099 292.037 L 362.099 292.037 Q 362.099 292.246 362.09 292.4 L 362.09 292.4 L 362.09 292.4 Q 362.081 292.555 362.081 292.591 L 362.081 292.591 L 362.081 292.591 Q 362.081 292.7 362.108 292.909 L 362.108 292.909 L 362.108 292.909 Q 362.135 293.117 362.163 293.326 L 362.163 293.326 L 362.163 293.326 Q 362.19 293.535 362.217 293.707 L 362.217 293.707 L 362.217 293.707 Q 362.244 293.879 362.262 293.934 L 362.262 293.934 L 362.262 293.934 Q 362.281 293.988 362.317 294.097 L 362.317 294.097 L 362.317 294.097 Q 362.353 294.206 362.39 294.261 L 362.39 294.261 L 362.39 294.261 Q 362.408 294.224 362.462 294.179 L 362.462 294.179 L 362.462 294.179 Q 362.517 294.134 362.553 294.097 L 362.553 294.097 L 362.553 294.097 Q 362.644 294.152 362.725 294.306 L 362.725 294.306 L 362.725 294.306 Q 362.807 294.46 362.807 294.478 Z  M 362.19 296.783 L 362.19 296.783 L 362.19 296.783 Q 362.117 296.493 362.027 296.202 L 362.027 296.202 L 362.027 296.202 Q 361.936 295.912 361.845 295.603 L 361.845 295.603 L 361.845 295.603 Q 361.537 295.985 361.255 296.338 L 361.255 296.338 L 361.255 296.338 Q 360.974 296.692 360.747 297.037 L 360.747 297.037 L 360.747 297.037 Q 360.52 297.382 360.384 297.754 L 360.384 297.754 L 360.384 297.754 Q 360.248 298.126 360.248 298.543 L 360.248 298.543 L 360.248 298.543 Q 360.248 299.106 360.566 299.469 L 360.566 299.469 L 360.566 299.469 Q 360.883 299.832 361.264 299.832 L 361.264 299.832 L 361.264 299.832 Q 361.682 299.832 362.054 299.523 L 362.054 299.523 L 362.054 299.523 Q 362.426 299.215 362.426 298.634 L 362.426 298.634 L 362.426 298.634 Q 362.426 298.253 362.408 297.999 L 362.408 297.999 L 362.408 297.999 Q 362.39 297.745 362.362 297.554 L 362.362 297.554 L 362.362 297.554 Q 362.335 297.364 362.29 297.191 L 362.29 297.191 L 362.29 297.191 Q 362.244 297.019 362.19 296.783 Z  M 365.475 294.914 L 365.475 294.914 L 365.475 294.914 Q 365.475 295.023 365.366 295.123 L 365.366 295.123 L 365.366 295.123 Q 365.257 295.222 365.121 295.304 L 365.121 295.304 L 365.121 295.304 Q 364.985 295.386 364.858 295.431 L 364.858 295.431 L 364.858 295.431 Q 364.731 295.476 364.712 295.476 L 364.712 295.476 L 364.712 295.476 Q 364.549 295.476 364.467 295.395 L 364.467 295.395 L 364.467 295.395 Q 364.386 295.313 364.34 295.213 L 364.34 295.213 L 364.34 295.213 Q 364.295 295.113 364.286 295.023 L 364.286 295.023 L 364.286 295.023 Q 364.277 294.932 364.277 294.896 L 364.277 294.896 L 364.277 294.896 Q 364.277 294.823 364.313 294.705 L 364.313 294.705 L 364.313 294.705 Q 364.349 294.587 364.422 294.478 L 364.422 294.478 L 364.422 294.478 Q 364.495 294.369 364.594 294.288 L 364.594 294.288 L 364.594 294.288 Q 364.694 294.206 364.821 294.206 L 364.821 294.206 L 364.821 294.206 Q 365.057 294.206 365.266 294.406 L 365.266 294.406 L 365.266 294.406 Q 365.475 294.605 365.475 294.914 Z  M 259.838 287.582 L 259.838 287.582 L 259.838 287.582 Q 259.602 288.834 259.402 289.996 L 259.402 289.996 L 259.402 289.996 Q 259.311 290.486 259.221 291.021 L 259.221 291.021 L 259.221 291.021 Q 259.13 291.557 259.048 292.074 L 259.048 292.074 L 259.048 292.074 Q 258.967 292.591 258.903 293.054 L 258.903 293.054 L 258.903 293.054 Q 258.84 293.517 258.803 293.898 L 258.803 293.898 L 258.803 293.898 Q 258.731 294.478 258.694 295.222 L 258.694 295.222 L 258.694 295.222 Q 258.658 295.966 258.622 296.638 L 258.622 296.638 L 258.622 296.638 Q 258.586 297.418 258.586 298.217 L 258.586 298.217 L 258.586 298.217 Q 258.586 298.38 258.549 298.58 L 258.549 298.58 L 258.549 298.58 Q 258.513 298.779 258.513 298.979 L 258.513 298.979 L 258.513 298.979 Q 258.513 299.16 258.431 299.287 L 258.431 299.287 L 258.431 299.287 Q 258.35 299.414 258.186 299.414 L 258.186 299.414 L 258.186 299.414 Q 258.041 299.414 257.96 299.188 L 257.96 299.188 L 257.96 299.188 Q 257.878 298.961 257.823 298.661 L 257.823 298.661 L 257.823 298.661 Q 257.769 298.362 257.751 298.062 L 257.751 298.062 L 257.751 298.062 Q 257.733 297.763 257.733 297.636 L 257.733 297.636 L 257.733 297.636 Q 257.733 297.491 257.733 297.282 L 257.733 297.282 L 257.733 297.282 Q 257.733 297.073 257.76 296.665 L 257.76 296.665 L 257.76 296.665 Q 257.787 296.257 257.842 295.594 L 257.842 295.594 L 257.842 295.594 Q 257.896 294.932 258.005 293.861 L 258.005 293.861 L 258.005 293.861 Q 258.005 293.843 257.76 293.68 L 257.76 293.68 L 257.76 293.68 Q 257.515 293.517 257.161 293.272 L 257.161 293.272 L 257.161 293.272 Q 256.807 293.027 256.435 292.736 L 256.435 292.736 L 256.435 292.736 Q 256.063 292.446 255.809 292.174 L 255.809 292.174 L 255.809 292.174 Q 255.773 292.137 255.7 292.01 L 255.7 292.01 L 255.7 292.01 Q 255.628 291.883 255.628 291.702 L 255.628 291.702 L 255.628 291.702 Q 255.628 291.611 255.718 291.511 L 255.718 291.511 L 255.718 291.511 Q 255.809 291.411 255.918 291.411 L 255.918 291.411 L 255.918 291.411 Q 255.99 291.411 256.063 291.484 L 256.063 291.484 L 256.063 291.484 Q 256.48 291.847 257.025 292.292 L 257.025 292.292 L 257.025 292.292 Q 257.569 292.736 258.096 293.099 L 258.096 293.099 L 258.096 293.099 Q 258.132 292.772 258.25 292.101 L 258.25 292.101 L 258.25 292.101 Q 258.368 291.43 258.495 290.658 L 258.495 290.658 L 258.495 290.658 Q 258.622 289.887 258.74 289.161 L 258.74 289.161 L 258.74 289.161 Q 258.858 288.435 258.912 288 L 258.912 288 L 258.912 288 Q 258.912 287.927 258.949 287.764 L 258.949 287.764 L 258.949 287.764 Q 258.985 287.6 259.057 287.437 L 259.057 287.437 L 259.057 287.437 Q 259.13 287.274 259.221 287.156 L 259.221 287.156 L 259.221 287.156 Q 259.311 287.038 259.42 287.038 L 259.42 287.038 L 259.42 287.038 Q 259.475 287.038 259.656 287.138 L 259.656 287.138 L 259.656 287.138 Q 259.838 287.237 259.838 287.582 Z  M 264.411 292.155 L 264.411 292.155 L 264.411 292.155 Q 264.411 292.555 264.302 292.918 L 264.302 292.918 L 264.302 292.918 Q 264.193 293.281 264.012 293.553 L 264.012 293.553 L 264.012 293.553 Q 263.83 293.825 263.585 293.979 L 263.585 293.979 L 263.585 293.979 Q 263.34 294.134 263.05 294.134 L 263.05 294.134 L 263.05 294.134 Q 262.542 294.134 262.251 293.843 L 262.251 293.843 L 262.251 293.843 Q 261.961 293.553 261.807 293.172 L 261.807 293.172 L 261.807 293.172 Q 261.653 292.791 261.607 292.4 L 261.607 292.4 L 261.607 292.4 Q 261.562 292.01 261.562 291.811 L 261.562 291.811 L 261.562 291.811 Q 261.562 291.484 261.662 291.076 L 261.662 291.076 L 261.662 291.076 Q 261.761 290.667 261.934 290.323 L 261.934 290.323 L 261.934 290.323 Q 262.106 289.978 262.324 289.742 L 262.324 289.742 L 262.324 289.742 Q 262.542 289.506 262.778 289.506 L 262.778 289.506 L 262.778 289.506 Q 262.832 289.506 262.95 289.542 L 262.95 289.542 L 262.95 289.542 Q 263.068 289.578 263.195 289.651 L 263.195 289.651 L 263.195 289.651 Q 263.322 289.724 263.422 289.833 L 263.422 289.833 L 263.422 289.833 Q 263.522 289.941 263.558 290.087 L 263.558 290.087 L 263.558 290.087 Q 263.758 290.105 263.957 290.232 L 263.957 290.232 L 263.957 290.232 Q 264.157 290.359 264.175 290.431 L 264.175 290.431 L 264.175 290.431 Q 264.32 290.903 264.366 291.375 L 264.366 291.375 L 264.366 291.375 Q 264.411 291.847 264.411 292.155 Z  M 263.594 291.829 L 263.594 291.829 L 263.594 291.829 Q 263.594 291.557 263.54 291.257 L 263.54 291.257 L 263.54 291.257 Q 263.485 290.958 263.322 290.649 L 263.322 290.649 L 263.322 290.649 Q 263.286 290.667 263.231 290.667 L 263.231 290.667 L 263.231 290.667 Q 263.159 290.667 263.113 290.649 L 263.113 290.649 L 263.113 290.649 Q 263.068 290.631 263.032 290.631 L 263.032 290.631 L 263.032 290.631 Q 262.814 290.631 262.687 290.749 L 262.687 290.749 L 262.687 290.749 Q 262.56 290.867 262.496 291.058 L 262.496 291.058 L 262.496 291.058 Q 262.433 291.248 262.415 291.466 L 262.415 291.466 L 262.415 291.466 Q 262.397 291.684 262.397 291.883 L 262.397 291.883 L 262.397 291.883 Q 262.397 292.083 262.415 292.328 L 262.415 292.328 L 262.415 292.328 Q 262.433 292.573 262.496 292.791 L 262.496 292.791 L 262.496 292.791 Q 262.56 293.008 262.669 293.163 L 262.669 293.163 L 262.669 293.163 Q 262.778 293.317 262.959 293.317 L 262.959 293.317 L 262.959 293.317 Q 263.141 293.317 263.268 293.126 L 263.268 293.126 L 263.268 293.126 Q 263.395 292.936 263.467 292.682 L 263.467 292.682 L 263.467 292.682 Q 263.54 292.428 263.567 292.183 L 263.567 292.183 L 263.567 292.183 Q 263.594 291.938 263.594 291.829 Z  M 272.214 293.063 L 272.214 293.063 L 272.214 293.063 Q 272.214 293.226 271.997 293.408 L 271.997 293.408 L 271.997 293.408 Q 271.779 293.589 271.488 293.743 L 271.488 293.743 L 271.488 293.743 Q 271.198 293.898 270.899 294.006 L 270.899 294.006 L 270.899 294.006 Q 270.599 294.115 270.454 294.115 L 270.454 294.115 L 270.454 294.115 Q 270.291 294.115 270.1 294.025 L 270.1 294.025 L 270.1 294.025 Q 269.91 293.934 269.737 293.807 L 269.737 293.807 L 269.737 293.807 Q 269.565 293.68 269.438 293.571 L 269.438 293.571 L 269.438 293.571 Q 269.311 293.462 269.274 293.426 L 269.274 293.426 L 269.274 293.426 Q 269.22 293.48 269.111 293.644 L 269.111 293.644 L 269.111 293.644 Q 269.002 293.807 268.848 293.997 L 268.848 293.997 L 268.848 293.997 Q 268.694 294.188 268.521 294.333 L 268.521 294.333 L 268.521 294.333 Q 268.349 294.478 268.167 294.478 L 268.167 294.478 L 268.167 294.478 Q 267.696 294.478 267.351 293.97 L 267.351 293.97 L 267.351 293.97 Q 267.006 293.462 266.779 292.809 L 266.779 292.809 L 266.779 292.809 Q 266.552 292.155 266.434 291.548 L 266.434 291.548 L 266.434 291.548 Q 266.316 290.94 266.316 290.722 L 266.316 290.722 L 266.316 290.722 Q 266.316 290.595 266.453 290.513 L 266.453 290.513 L 266.453 290.513 Q 266.589 290.431 266.661 290.431 L 266.661 290.431 L 266.661 290.431 Q 266.915 290.431 267.006 290.604 L 267.006 290.604 L 267.006 290.604 Q 267.097 290.776 267.097 290.976 L 267.097 290.976 L 267.097 290.976 Q 267.097 291.139 267.197 291.557 L 267.197 291.557 L 267.197 291.557 Q 267.296 291.974 267.442 292.41 L 267.442 292.41 L 267.442 292.41 Q 267.587 292.845 267.75 293.181 L 267.75 293.181 L 267.75 293.181 Q 267.913 293.517 268.04 293.517 L 268.04 293.517 L 268.04 293.517 Q 268.276 293.517 268.449 293.217 L 268.449 293.217 L 268.449 293.217 Q 268.621 292.918 268.73 292.527 L 268.73 292.527 L 268.73 292.527 Q 268.839 292.137 268.893 291.783 L 268.893 291.783 L 268.893 291.783 Q 268.948 291.43 268.948 291.321 L 268.948 291.321 L 268.948 291.321 Q 268.948 291.303 268.957 291.203 L 268.957 291.203 L 268.957 291.203 Q 268.966 291.103 268.984 290.994 L 268.984 290.994 L 268.984 290.994 Q 269.002 290.885 269.011 290.794 L 269.011 290.794 L 269.011 290.794 Q 269.02 290.704 269.02 290.667 L 269.02 290.667 L 269.02 290.667 Q 269.02 290.54 268.966 290.495 L 268.966 290.495 L 268.966 290.495 Q 268.912 290.45 268.912 290.304 L 268.912 290.304 L 268.912 290.304 Q 268.912 290.196 269.02 290.096 L 269.02 290.096 L 269.02 290.096 Q 269.129 289.996 269.492 289.996 L 269.492 289.996 L 269.492 289.996 Q 269.637 289.996 269.719 290.078 L 269.719 290.078 L 269.719 290.078 Q 269.801 290.159 269.837 290.268 L 269.837 290.268 L 269.837 290.268 Q 269.873 290.377 269.882 290.477 L 269.882 290.477 L 269.882 290.477 Q 269.892 290.577 269.892 290.613 L 269.892 290.613 L 269.892 290.613 Q 269.892 290.631 269.873 290.867 L 269.873 290.867 L 269.873 290.867 Q 269.855 291.103 269.846 291.384 L 269.846 291.384 L 269.846 291.384 Q 269.837 291.665 269.819 291.92 L 269.819 291.92 L 269.819 291.92 Q 269.801 292.174 269.801 292.228 L 269.801 292.228 L 269.801 292.228 Q 269.801 292.282 269.855 292.446 L 269.855 292.446 L 269.855 292.446 Q 269.91 292.609 269.991 292.782 L 269.991 292.782 L 269.991 292.782 Q 270.073 292.954 270.182 293.09 L 270.182 293.09 L 270.182 293.09 Q 270.291 293.226 270.418 293.226 L 270.418 293.226 L 270.418 293.226 Q 270.636 293.226 270.826 293.163 L 270.826 293.163 L 270.826 293.163 Q 271.017 293.099 271.189 293.017 L 271.189 293.017 L 271.189 293.017 Q 271.361 292.936 271.507 292.872 L 271.507 292.872 L 271.507 292.872 Q 271.652 292.809 271.779 292.809 L 271.779 292.809 L 271.779 292.809 Q 271.942 292.809 272.078 292.881 L 272.078 292.881 L 272.078 292.881 Q 272.214 292.954 272.214 293.063 Z  M 221.383 286.112 L 221.383 286.112 L 221.383 286.112 Q 221.383 286.239 221.283 286.321 L 221.283 286.321 L 221.283 286.321 Q 221.184 286.403 221.093 286.403 L 221.093 286.403 L 221.093 286.403 Q 220.929 286.403 220.576 286.439 L 220.576 286.439 L 220.576 286.439 Q 220.222 286.475 219.813 286.521 L 219.813 286.521 L 219.813 286.521 Q 219.405 286.566 219.015 286.611 L 219.015 286.611 L 219.015 286.611 Q 218.625 286.657 218.389 286.693 L 218.389 286.693 L 218.389 286.693 Q 218.316 286.693 218.089 286.711 L 218.089 286.711 L 218.089 286.711 Q 217.863 286.729 217.581 286.757 L 217.581 286.757 L 217.581 286.757 Q 217.3 286.784 217.019 286.82 L 217.019 286.82 L 217.019 286.82 Q 216.737 286.856 216.574 286.875 L 216.574 286.875 L 216.574 286.875 Q 216.374 286.911 215.993 287.002 L 215.993 287.002 L 215.993 287.002 Q 215.612 287.092 215.304 287.183 L 215.304 287.183 L 215.304 287.183 Q 215.195 287.219 215.104 287.237 L 215.104 287.237 L 215.104 287.237 Q 215.013 287.256 214.959 287.274 L 214.959 287.274 L 214.959 287.274 Q 214.886 287.292 214.832 287.31 L 214.832 287.31 L 215.812 290.776 L 215.812 290.776 Q 215.866 290.94 215.993 291.303 L 215.993 291.303 L 215.993 291.303 Q 216.12 291.665 216.293 292.101 L 216.293 292.101 L 216.293 292.101 Q 216.465 292.537 216.656 293.008 L 216.656 293.008 L 216.656 293.008 Q 216.846 293.48 216.991 293.879 L 216.991 293.879 L 216.991 293.879 Q 217.082 294.115 217.191 294.46 L 217.191 294.46 L 217.191 294.46 Q 217.3 294.805 217.391 295.159 L 217.391 295.159 L 217.391 295.159 Q 217.481 295.513 217.545 295.803 L 217.545 295.803 L 217.545 295.803 Q 217.608 296.093 217.608 296.202 L 217.608 296.202 L 217.608 296.202 Q 217.608 296.456 217.463 296.738 L 217.463 296.738 L 217.463 296.738 Q 217.318 297.019 217.082 297.019 L 217.082 297.019 L 217.082 297.019 Q 216.864 297.019 216.864 296.71 L 216.864 296.71 L 216.864 296.583 L 216.864 296.583 Q 216.864 296.529 216.873 296.456 L 216.873 296.456 L 216.873 296.456 Q 216.883 296.384 216.883 296.293 L 216.883 296.293 L 216.883 296.293 Q 216.883 296.148 216.774 295.794 L 216.774 295.794 L 216.774 295.794 Q 216.665 295.44 216.501 294.996 L 216.501 294.996 L 216.501 294.996 Q 216.338 294.551 216.148 294.052 L 216.148 294.052 L 216.148 294.052 Q 215.957 293.553 215.785 293.108 L 215.785 293.108 L 215.785 293.108 Q 215.612 292.664 215.485 292.346 L 215.485 292.346 L 215.485 292.346 Q 215.358 292.028 215.322 291.92 L 215.322 291.92 L 215.322 291.92 Q 215.267 291.774 215.186 291.502 L 215.186 291.502 L 215.186 291.502 Q 215.104 291.23 214.995 290.885 L 214.995 290.885 L 214.995 290.885 Q 214.886 290.54 214.768 290.15 L 214.768 290.15 L 214.768 290.15 Q 214.65 289.76 214.542 289.379 L 214.542 289.379 L 214.542 289.379 Q 214.269 288.49 213.943 287.437 L 213.943 287.437 L 213.943 287.437 Q 213.852 287.455 213.353 287.519 L 213.353 287.519 L 213.353 287.519 Q 212.854 287.582 212.237 287.655 L 212.237 287.655 L 212.237 287.655 Q 211.62 287.727 211.057 287.791 L 211.057 287.791 L 211.057 287.791 Q 210.495 287.854 210.295 287.854 L 210.295 287.854 L 210.295 287.854 Q 209.841 287.854 209.714 287.709 L 209.714 287.709 L 209.714 287.709 Q 209.587 287.564 209.569 287.346 L 209.569 287.346 L 209.569 287.346 Q 209.569 287.201 209.642 287.047 L 209.642 287.047 L 209.642 287.047 Q 209.714 286.893 209.841 286.893 L 209.841 286.893 L 209.841 286.893 Q 209.986 286.893 210.068 286.938 L 210.068 286.938 L 210.068 286.938 Q 210.15 286.983 210.277 286.983 L 210.277 286.983 L 210.277 286.983 Q 210.313 286.983 210.649 286.947 L 210.649 286.947 L 210.649 286.947 Q 210.985 286.911 211.447 286.856 L 211.447 286.856 L 211.447 286.856 Q 211.91 286.802 212.409 286.747 L 212.409 286.747 L 212.409 286.747 Q 212.908 286.693 213.289 286.657 L 213.289 286.657 L 213.289 286.657 Q 213.38 286.657 213.48 286.648 L 213.48 286.648 L 213.48 286.648 Q 213.58 286.639 213.67 286.62 L 213.67 286.62 L 213.67 286.62 Q 213.761 286.602 213.852 286.602 L 213.852 286.602 L 213.852 286.602 Q 213.852 286.548 213.915 286.357 L 213.915 286.357 L 213.915 286.357 Q 213.979 286.167 214.052 286.167 L 214.052 286.167 L 214.052 286.167 Q 214.233 286.167 214.351 286.303 L 214.351 286.303 L 214.351 286.303 Q 214.469 286.439 214.56 286.493 L 214.56 286.493 L 214.56 286.493 Q 214.687 286.475 214.95 286.412 L 214.95 286.412 L 214.95 286.412 Q 215.213 286.348 215.512 286.294 L 215.512 286.294 L 215.512 286.294 Q 215.812 286.239 216.093 286.194 L 216.093 286.194 L 216.093 286.194 Q 216.374 286.149 216.574 286.13 L 216.574 286.13 L 218.697 286.003 L 218.697 286.003 Q 218.97 285.985 219.323 285.958 L 219.323 285.958 L 219.323 285.958 Q 219.677 285.931 220.022 285.895 L 220.022 285.895 L 220.022 285.895 Q 220.367 285.858 220.621 285.831 L 220.621 285.831 L 220.621 285.831 Q 220.875 285.804 220.966 285.804 L 220.966 285.804 L 220.966 285.804 Q 221.129 285.822 221.256 285.913 L 221.256 285.913 L 221.256 285.913 Q 221.383 286.003 221.383 286.112 Z  M 224.922 292.718 L 224.922 292.718 L 224.922 292.718 Q 225.013 292.809 225.013 292.827 L 225.013 292.827 L 225.013 292.827 Q 225.013 292.863 224.913 293.045 L 224.913 293.045 L 224.913 293.045 Q 224.813 293.226 224.65 293.426 L 224.65 293.426 L 224.65 293.426 Q 224.486 293.625 224.296 293.78 L 224.296 293.78 L 224.296 293.78 Q 224.105 293.934 223.924 293.934 L 223.924 293.934 L 223.924 293.934 Q 223.543 293.934 223.307 293.78 L 223.307 293.78 L 223.307 293.78 Q 223.071 293.625 222.917 293.389 L 222.917 293.389 L 222.917 293.389 Q 222.762 293.154 222.681 292.872 L 222.681 292.872 L 222.681 292.872 Q 222.599 292.591 222.545 292.337 L 222.545 292.337 L 222.545 292.337 Q 222.508 292.21 222.472 292.21 L 222.472 292.21 L 222.472 292.21 Q 222.418 292.21 222.254 292.6 L 222.254 292.6 L 222.254 292.6 Q 222.091 292.99 221.9 293.453 L 221.9 293.453 L 221.9 293.453 Q 221.71 293.916 221.537 294.306 L 221.537 294.306 L 221.537 294.306 Q 221.365 294.696 221.311 294.696 L 221.311 294.696 L 221.311 294.696 Q 220.984 294.696 220.757 294.415 L 220.757 294.415 L 220.757 294.415 Q 220.53 294.134 220.394 293.762 L 220.394 293.762 L 220.394 293.762 Q 220.258 293.389 220.185 292.999 L 220.185 292.999 L 220.185 292.999 Q 220.113 292.609 220.095 292.391 L 220.095 292.391 L 220.095 292.391 Q 220.04 291.901 219.859 290.758 L 219.859 290.758 L 219.859 290.758 Q 219.677 289.615 219.55 287.982 L 219.55 287.982 L 219.55 287.982 Q 219.514 287.637 219.469 287.355 L 219.469 287.355 L 219.469 287.355 Q 219.423 287.074 219.369 286.729 L 219.369 286.729 L 219.369 286.729 Q 219.314 286.385 219.278 285.949 L 219.278 285.949 L 219.278 285.949 Q 219.242 285.513 219.242 284.878 L 219.242 284.878 L 219.242 284.878 Q 219.242 284.842 219.26 284.642 L 219.26 284.642 L 219.26 284.642 Q 219.278 284.443 219.314 284.207 L 219.314 284.207 L 219.314 284.207 Q 219.351 283.971 219.432 283.789 L 219.432 283.789 L 219.432 283.789 Q 219.514 283.608 219.623 283.608 L 219.623 283.608 L 219.623 283.608 Q 219.75 283.608 219.859 283.762 L 219.859 283.762 L 219.859 283.762 Q 219.968 283.916 220.049 284.116 L 220.049 284.116 L 220.049 284.116 Q 220.131 284.316 220.167 284.497 L 220.167 284.497 L 220.167 284.497 Q 220.204 284.679 220.204 284.751 L 220.204 284.751 L 220.204 284.751 Q 220.204 285.023 220.167 285.259 L 220.167 285.259 L 220.167 285.259 Q 220.131 285.495 220.131 285.695 L 220.131 285.695 L 220.131 285.695 Q 220.131 285.967 220.176 286.385 L 220.176 286.385 L 220.176 286.385 Q 220.222 286.802 220.294 287.237 L 220.294 287.237 L 220.294 287.237 Q 220.367 287.673 220.421 288.081 L 220.421 288.081 L 220.421 288.081 Q 220.476 288.49 220.512 288.744 L 220.512 288.744 L 220.512 288.744 Q 220.512 288.762 220.548 288.998 L 220.548 288.998 L 220.548 288.998 Q 220.585 289.234 220.63 289.588 L 220.63 289.588 L 220.63 289.588 Q 220.675 289.941 220.721 290.35 L 220.721 290.35 L 220.721 290.35 Q 220.766 290.758 220.821 291.148 L 220.821 291.148 L 220.821 291.148 Q 220.875 291.538 220.92 291.838 L 220.92 291.838 L 220.92 291.838 Q 220.966 292.137 220.984 292.264 L 220.984 292.264 L 220.984 292.264 Q 220.984 292.319 221.011 292.419 L 221.011 292.419 L 221.011 292.419 Q 221.038 292.518 221.066 292.645 L 221.066 292.645 L 221.066 292.645 Q 221.093 292.772 221.129 292.881 L 221.129 292.881 L 221.129 292.881 Q 221.165 292.99 221.22 293.045 L 221.22 293.045 L 221.22 293.045 Q 221.329 292.827 221.501 292.373 L 221.501 292.373 L 221.501 292.373 Q 221.674 291.92 221.864 291.448 L 221.864 291.448 L 221.864 291.448 Q 222.055 290.976 222.227 290.622 L 222.227 290.622 L 222.227 290.622 Q 222.399 290.268 222.526 290.268 L 222.526 290.268 L 222.526 290.268 Q 222.672 290.268 222.762 290.323 L 222.762 290.323 L 222.762 290.323 Q 222.853 290.377 222.998 290.413 L 222.998 290.413 L 222.998 290.413 Q 223.18 290.486 223.18 290.604 L 223.18 290.604 L 223.18 290.604 Q 223.18 290.722 223.216 290.885 L 223.216 290.885 L 223.216 290.885 Q 223.252 291.103 223.334 291.457 L 223.334 291.457 L 223.334 291.457 Q 223.416 291.811 223.525 292.146 L 223.525 292.146 L 223.525 292.146 Q 223.633 292.482 223.779 292.718 L 223.779 292.718 L 223.779 292.718 Q 223.924 292.954 224.069 292.954 L 224.069 292.954 L 224.069 292.954 Q 224.142 292.954 224.269 292.763 L 224.269 292.763 L 224.269 292.763 Q 224.396 292.573 224.613 292.555 L 224.613 292.555 L 224.613 292.555 Q 224.65 292.555 224.74 292.6 L 224.74 292.6 L 224.74 292.6 Q 224.831 292.645 224.922 292.718 Z  M 234.703 292.301 L 234.703 292.301 L 234.703 292.301 Q 234.703 292.627 234.404 293.108 L 234.404 293.108 L 234.404 293.108 Q 234.105 293.589 233.596 294.043 L 233.596 294.043 L 233.596 294.043 Q 233.088 294.496 232.417 294.814 L 232.417 294.814 L 232.417 294.814 Q 231.745 295.132 231.019 295.132 L 231.019 295.132 L 231.019 295.132 Q 230.693 295.132 230.33 295.023 L 230.33 295.023 L 230.33 295.023 Q 229.967 294.914 229.622 294.705 L 229.622 294.705 L 229.622 294.705 Q 229.277 294.496 229.005 294.197 L 229.005 294.197 L 229.005 294.197 Q 228.733 293.898 228.606 293.517 L 228.606 293.517 L 228.606 293.517 Q 228.497 293.625 228.343 293.879 L 228.343 293.879 L 228.343 293.879 Q 228.188 294.134 228.007 294.397 L 228.007 294.397 L 228.007 294.397 Q 227.826 294.66 227.608 294.85 L 227.608 294.85 L 227.608 294.85 Q 227.39 295.041 227.154 295.041 L 227.154 295.041 L 227.154 295.041 Q 226.918 295.041 226.764 294.796 L 226.764 294.796 L 226.764 294.796 Q 226.61 294.551 226.519 294.251 L 226.519 294.251 L 226.519 294.251 Q 226.428 293.952 226.392 293.68 L 226.392 293.68 L 226.392 293.68 Q 226.356 293.408 226.356 293.371 L 226.356 293.371 L 226.356 293.371 Q 226.356 293.154 226.483 292.546 L 226.483 292.546 L 226.483 292.546 Q 226.61 291.938 226.864 291.284 L 226.864 291.284 L 226.864 291.284 Q 227.118 290.631 227.508 290.123 L 227.508 290.123 L 227.508 290.123 Q 227.898 289.615 228.424 289.615 L 228.424 289.615 L 228.424 289.615 Q 228.624 289.615 228.688 289.787 L 228.688 289.787 L 228.688 289.787 Q 228.751 289.96 228.751 290.123 L 228.751 290.123 L 228.751 290.667 L 228.751 290.667 Q 228.842 290.74 228.942 290.767 L 228.942 290.767 L 228.942 290.767 Q 229.041 290.794 229.123 290.84 L 229.123 290.84 L 229.123 290.84 Q 229.205 290.885 229.25 290.976 L 229.25 290.976 L 229.25 290.976 Q 229.295 291.067 229.295 291.266 L 229.295 291.266 L 229.295 291.266 Q 229.295 291.393 229.277 291.493 L 229.277 291.493 L 229.277 291.493 Q 229.259 291.593 229.259 291.684 L 229.259 291.684 L 229.259 291.684 Q 229.259 292.155 229.332 292.609 L 229.332 292.609 L 229.332 292.609 Q 229.404 293.063 229.622 293.417 L 229.622 293.417 L 229.622 293.417 Q 229.84 293.771 230.221 293.997 L 230.221 293.997 L 230.221 293.997 Q 230.602 294.224 231.237 294.224 L 231.237 294.224 L 231.237 294.224 Q 232.036 294.224 232.589 293.889 L 232.589 293.889 L 232.589 293.889 Q 233.143 293.553 233.515 293.144 L 233.515 293.144 L 233.515 293.144 Q 233.887 292.736 234.105 292.4 L 234.105 292.4 L 234.105 292.4 Q 234.322 292.065 234.468 292.065 L 234.468 292.065 L 234.468 292.065 Q 234.703 292.065 234.703 292.301 Z  M 228.334 291.502 L 228.334 291.502 L 228.334 291.502 Q 228.334 291.43 228.297 291.366 L 228.297 291.366 L 228.297 291.366 Q 228.261 291.303 228.261 291.248 L 228.261 291.248 L 228.261 291.248 Q 228.261 291.175 228.297 291.121 L 228.297 291.121 L 228.297 291.121 Q 228.334 291.067 228.334 290.976 L 228.334 290.976 L 228.334 290.976 Q 228.334 290.921 228.297 290.894 L 228.297 290.894 L 228.297 290.894 Q 228.261 290.867 228.261 290.831 L 228.261 290.831 L 228.261 290.831 Q 228.098 290.867 227.925 291.139 L 227.925 291.139 L 227.925 291.139 Q 227.753 291.411 227.599 291.774 L 227.599 291.774 L 227.599 291.774 Q 227.444 292.137 227.354 292.509 L 227.354 292.509 L 227.354 292.509 Q 227.263 292.881 227.263 293.117 L 227.263 293.117 L 227.263 293.117 Q 227.263 293.244 227.336 293.535 L 227.336 293.535 L 227.336 293.535 Q 227.408 293.825 227.499 293.916 L 227.499 293.916 L 227.499 293.916 Q 227.807 293.281 228.071 292.682 L 228.071 292.682 L 228.071 292.682 Q 228.334 292.083 228.334 291.502 Z  M 240.365 293.843 L 240.365 293.843 L 240.365 293.843 Q 240.365 293.952 240.293 294.061 L 240.293 294.061 L 240.293 294.061 Q 240.22 294.17 240.12 294.261 L 240.12 294.261 L 240.12 294.261 Q 240.021 294.351 239.903 294.415 L 239.903 294.415 L 239.903 294.415 Q 239.785 294.478 239.694 294.478 L 239.694 294.478 L 239.694 294.478 Q 239.386 294.478 238.905 294.342 L 238.905 294.342 L 238.905 294.342 Q 238.424 294.206 238.133 293.916 L 238.133 293.916 L 238.133 293.916 Q 237.825 293.607 237.589 293.181 L 237.589 293.181 L 237.589 293.181 Q 237.353 292.754 237.063 291.92 L 237.063 291.92 L 237.063 291.92 Q 236.863 292.718 236.6 293.498 L 236.6 293.498 L 236.6 293.498 Q 236.337 294.279 235.756 294.932 L 235.756 294.932 L 235.756 294.932 Q 235.72 294.968 235.647 294.968 L 235.647 294.968 L 235.647 294.968 Q 235.52 294.968 235.375 294.841 L 235.375 294.841 L 235.375 294.841 Q 235.23 294.714 235.23 294.587 L 235.23 294.587 L 235.23 294.587 Q 235.23 294.46 235.202 293.997 L 235.202 293.997 L 235.202 293.997 Q 235.175 293.535 235.139 292.963 L 235.139 292.963 L 235.139 292.963 Q 235.103 292.391 235.075 291.802 L 235.075 291.802 L 235.075 291.802 Q 235.048 291.212 235.048 290.831 L 235.048 290.831 L 235.048 290.831 Q 235.048 290.649 235.066 290.35 L 235.066 290.35 L 235.066 290.35 Q 235.085 290.05 235.175 289.833 L 235.175 289.833 L 235.175 289.833 Q 235.193 289.796 235.311 289.687 L 235.311 289.687 L 235.311 289.687 Q 235.429 289.578 235.575 289.578 L 235.575 289.578 L 235.575 289.578 Q 235.702 289.578 235.72 289.742 L 235.72 289.742 L 235.72 289.742 Q 235.738 289.905 235.738 290.105 L 235.738 290.105 L 235.738 292.972 L 235.738 292.972 Q 235.738 293.063 235.765 293.226 L 235.765 293.226 L 235.765 293.226 Q 235.792 293.389 235.847 293.462 L 235.847 293.462 L 235.847 293.462 Q 236.046 293.027 236.219 292.437 L 236.219 292.437 L 236.219 292.437 Q 236.391 291.847 236.554 291.312 L 236.554 291.312 L 236.554 291.312 Q 236.718 290.776 236.881 290.404 L 236.881 290.404 L 236.881 290.404 Q 237.044 290.032 237.208 290.032 L 237.208 290.032 L 237.208 290.032 Q 237.389 290.032 237.498 290.105 L 237.498 290.105 L 237.498 290.105 Q 237.607 290.177 237.68 290.395 L 237.68 290.395 L 237.68 290.395 Q 237.77 290.921 237.825 291.33 L 237.825 291.33 L 237.825 291.33 Q 237.879 291.738 237.961 292.065 L 237.961 292.065 L 237.961 292.065 Q 238.043 292.391 238.197 292.673 L 238.197 292.673 L 238.197 292.673 Q 238.351 292.954 238.623 293.19 L 238.623 293.19 L 238.623 293.19 Q 238.877 293.426 239.195 293.535 L 239.195 293.535 L 239.195 293.535 Q 239.513 293.644 239.748 293.644 L 239.748 293.644 L 239.748 293.644 Q 239.857 293.644 239.984 293.598 L 239.984 293.598 L 239.984 293.598 Q 240.111 293.553 240.166 293.553 L 240.166 293.553 L 240.166 293.553 Q 240.238 293.553 240.302 293.68 L 240.302 293.68 L 240.302 293.68 Q 240.365 293.807 240.365 293.843 Z  M 247.752 294.134 L 247.752 294.134 L 247.752 294.134 Q 247.752 294.279 247.715 294.342 L 247.715 294.342 L 247.715 294.342 Q 247.679 294.406 247.534 294.442 L 247.534 294.442 L 247.534 294.442 Q 247.37 294.496 247.125 294.56 L 247.125 294.56 L 247.125 294.56 Q 246.88 294.624 246.59 294.687 L 246.59 294.687 L 246.59 294.687 Q 246.3 294.751 246 294.796 L 246 294.796 L 246 294.796 Q 245.701 294.841 245.447 294.841 L 245.447 294.841 L 245.447 294.841 Q 245.138 294.841 244.766 294.805 L 244.766 294.805 L 244.766 294.805 Q 244.394 294.769 244.049 294.687 L 244.049 294.687 L 244.049 294.687 Q 243.705 294.605 243.423 294.506 L 243.423 294.506 L 243.423 294.506 Q 243.142 294.406 243.015 294.261 L 243.015 294.261 L 243.015 294.261 Q 243.106 294.642 243.178 295.023 L 243.178 295.023 L 243.178 295.023 Q 243.251 295.404 243.287 295.785 L 243.287 295.785 L 243.287 295.785 Q 243.287 295.876 243.242 295.939 L 243.242 295.939 L 243.242 295.939 Q 243.196 296.003 242.997 296.003 L 242.997 296.003 L 242.997 296.003 Q 242.906 296.003 242.824 295.957 L 242.824 295.957 L 242.824 295.957 Q 242.743 295.912 242.688 295.767 L 242.688 295.767 L 242.688 295.767 Q 242.525 295.404 242.416 295.086 L 242.416 295.086 L 242.416 295.086 Q 242.307 294.769 242.226 294.442 L 242.226 294.442 L 242.226 294.442 Q 242.144 294.115 242.053 293.752 L 242.053 293.752 L 242.053 293.752 Q 241.962 293.389 241.835 292.954 L 241.835 292.954 L 241.835 292.954 Q 241.636 292.246 241.418 291.439 L 241.418 291.439 L 241.418 291.439 Q 241.2 290.631 241.019 289.896 L 241.019 289.896 L 241.019 289.896 Q 240.837 289.161 240.728 288.589 L 240.728 288.589 L 240.728 288.589 Q 240.62 288.018 240.62 287.782 L 240.62 287.782 L 240.62 287.782 Q 240.62 287.673 240.629 287.492 L 240.629 287.492 L 240.629 287.492 Q 240.638 287.31 240.683 287.138 L 240.683 287.138 L 240.683 287.138 Q 240.728 286.965 240.81 286.847 L 240.81 286.847 L 240.81 286.847 Q 240.892 286.729 241.037 286.729 L 241.037 286.729 L 241.037 286.729 Q 241.128 286.729 241.227 287.011 L 241.227 287.011 L 241.227 287.011 Q 241.327 287.292 241.409 287.628 L 241.409 287.628 L 241.409 287.628 Q 241.491 287.963 241.554 288.263 L 241.554 288.263 L 241.554 288.263 Q 241.618 288.562 241.618 288.58 L 241.618 288.58 L 241.618 288.58 Q 241.69 288.98 241.79 289.461 L 241.79 289.461 L 241.79 289.461 Q 241.89 289.941 241.999 290.431 L 241.999 290.431 L 241.999 290.431 Q 242.108 290.921 242.235 291.366 L 242.235 291.366 L 242.235 291.366 Q 242.362 291.811 242.507 292.119 L 242.507 292.119 L 242.507 292.119 Q 242.525 291.938 242.634 291.593 L 242.634 291.593 L 242.634 291.593 Q 242.743 291.248 242.924 290.849 L 242.924 290.849 L 242.924 290.849 Q 243.106 290.45 243.333 290.023 L 243.333 290.023 L 243.333 290.023 Q 243.559 289.597 243.804 289.252 L 243.804 289.252 L 243.804 289.252 Q 244.049 288.907 244.294 288.689 L 244.294 288.689 L 244.294 288.689 Q 244.539 288.471 244.757 288.471 L 244.757 288.471 L 244.757 288.471 Q 245.102 288.471 245.238 288.562 L 245.238 288.562 L 245.238 288.562 Q 245.374 288.653 245.374 288.78 L 245.374 288.78 L 245.374 288.78 Q 245.374 288.889 245.066 289.206 L 245.066 289.206 L 245.066 289.206 Q 244.757 289.524 244.376 290.041 L 244.376 290.041 L 244.376 290.041 Q 243.995 290.558 243.686 291.257 L 243.686 291.257 L 243.686 291.257 Q 243.378 291.956 243.378 292.809 L 243.378 292.809 L 243.378 292.809 Q 243.378 293.117 243.55 293.344 L 243.55 293.344 L 243.55 293.344 Q 243.723 293.571 244.004 293.716 L 244.004 293.716 L 244.004 293.716 Q 244.285 293.861 244.639 293.943 L 244.639 293.943 L 244.639 293.943 Q 244.993 294.025 245.338 294.025 L 245.338 294.025 L 245.338 294.025 Q 245.646 294.025 246.009 294.006 L 246.009 294.006 L 246.009 294.006 Q 246.372 293.988 246.69 293.961 L 246.69 293.961 L 246.69 293.961 Q 247.007 293.934 247.234 293.916 L 247.234 293.916 L 247.234 293.916 Q 247.461 293.898 247.516 293.898 L 247.516 293.898 L 247.516 293.898 Q 247.606 293.898 247.679 293.952 L 247.679 293.952 L 247.679 293.952 Q 247.752 294.006 247.752 294.134 Z " fill="rgb(59,67,81)"/></svg>